<svg width="601" height="90" viewBox="0 0 601 90" fill="none" xmlns="http://www.w3.org/2000/svg">
<g clip-path="url(#clip0_22_606)">
<path d="M59.2 76.4001C57.8 76.4001 56.4 75.6 55.8 74.3L31.7 26.1001L7.59998 74.3C6.69998 76.2 4.29998 77.0001 2.49998 76.0001C0.59998 75.1001 -0.200021 72.7 0.799979 70.8L28.3 15.7001C28.9 14.4001 30.3 13.6001 31.7 13.6001C33.2 13.6001 34.5 14.4001 35.1 15.7001L62.6 70.8C63.5 72.7 62.8 75.0001 60.9 76.0001C60.3 76.2001 59.7 76.4001 59.2 76.4001ZM153.6 72.5001C153.6 73.1001 153.7 73.7001 154 74.2001C154.9 76.1001 157.3 76.9001 159.1 75.9001L214.2 48.4001C215.5 47.8001 216.3 46.4001 216.3 45.0001C216.3 43.6001 215.5 42.2001 214.2 41.6001L159.1 14.0001C157.2 13.1001 154.9 13.8001 154 15.7001C153.1 17.6001 153.8 19.9 155.7 20.8L203.9 44.9001L155.7 69.0001C154.3 69.8001 153.6 71.1001 153.6 72.5001ZM139.1 17.4001C139.1 17.3001 139.1 17.2001 139.1 17.2001C139.1 17.1001 139.1 17.1001 139.1 17.0001C139.1 16.9001 139.1 16.9 139.1 16.8C139.1 16.7 139.1 16.7001 139.1 16.6001C139.1 16.6001 139.1 16.5001 139.1 16.4001C139.1 16.3001 139.1 16.3001 139 16.2001V16.1001C139 16.0001 138.9 15.9001 138.9 15.9001C138.9 15.9001 138.9 15.8 138.8 15.8C138.8 15.7 138.7 15.7001 138.7 15.6001C138.7 15.5001 138.6 15.5001 138.6 15.4001L138.5 15.3C138.5 15.2 138.4 15.2001 138.4 15.1001C138.4 15.1001 138.4 15.0001 138.3 15.0001C138.2 14.9001 138.2 14.9 138.1 14.8L138 14.7001C137.9 14.6001 137.9 14.6001 137.8 14.5001L137.7 14.4001C137.6 14.4001 137.6 14.3 137.5 14.3C137.5 14.3 137.4 14.2001 137.3 14.2001L137.2 14.1001C137.1 14.1001 137.1 14.0001 137 14.0001H136.9C136.8 14.0001 136.8 13.9001 136.7 13.9001C136.7 13.9001 136.6 13.9 136.6 13.8C136.5 13.8 136.5 13.8001 136.4 13.7001C136.3 13.7001 136.3 13.7001 136.2 13.7001C136.1 13.7001 136.1 13.7001 136 13.7001C135.9 13.7001 135.9 13.7001 135.8 13.7001C135.8 13.7001 135.7 13.7001 135.6 13.7001C135.5 13.7001 135.4 13.7001 135.4 13.7001H135.3C135.2 13.7001 135.1 13.7001 135.1 13.7001C135 13.7001 135 13.7001 134.9 13.7001C134.8 13.7001 134.8 13.7001 134.7 13.7001C134.6 13.7001 134.6 13.7001 134.5 13.7001C134.4 13.7001 134.4 13.7001 134.3 13.7001C134.2 13.7001 134.2 13.7 134.1 13.8H134C133.9 13.8 133.9 13.9001 133.8 13.9001C133.8 13.9001 133.7 13.9001 133.7 14.0001C133.6 14.0001 133.6 14.1001 133.5 14.1001C133.4 14.1001 133.4 14.2001 133.3 14.2001L133.2 14.3C133.1 14.3 133.1 14.4001 133 14.4001L132.9 14.5001C132.8 14.5001 132.8 14.6001 132.7 14.7001L132.6 14.8C132.6 14.9 132.5 14.9001 132.5 15.0001L132.4 15.1001C132.4 15.1001 132.3 15.2 132.3 15.3C132.3 15.4 132.2 15.4001 132.2 15.5001L132.1 15.6001C132.1 15.7001 132 15.7 132 15.8L107.9 64.0001L83.8 15.8C83.8 15.7 83.7 15.7001 83.7 15.6001L83.6 15.5001C83.6 15.4001 83.5 15.4 83.5 15.3C83.5 15.2 83.4 15.2001 83.4 15.1001L83.3 15.0001C83.3 14.9001 83.2 14.9 83.1 14.8L83 14.7001C82.9 14.6001 82.9 14.6001 82.8 14.5001L82.7 14.4001C82.6 14.4001 82.6 14.3 82.5 14.3C82.4 14.3 82.4 14.2001 82.3 14.2001L82.2 14.1001C82.1 14.1001 82.1 14.0001 82 14.0001C82 14.0001 81.9 14.0001 81.9 13.9001C81.8 13.9001 81.7 13.8 81.7 13.8H81.6C81.5 13.8 81.4 13.8001 81.4 13.7001H81.3C81.2 13.7001 81.2 13.7001 81.1 13.7001C81 13.7001 81 13.7001 80.9 13.7001C80.8 13.7001 80.8 13.7001 80.7 13.7001C80.6 13.7001 80.5 13.7001 80.5 13.7001H80.4C80.3 13.7001 80.2 13.7001 80.2 13.7001C80.1 13.7001 80.1 13.7001 80 13.7001C79.9 13.7001 79.9 13.7001 79.8 13.7001C79.7 13.7001 79.7 13.7001 79.6 13.7001C79.5 13.7001 79.5 13.7001 79.4 13.7001C79.3 13.7001 79.3 13.7 79.2 13.8C79.2 13.8 79.1 13.8001 79.1 13.9001C79 13.9001 79 14.0001 78.9 14.0001H78.8C78.7 14.0001 78.7 14.1001 78.6 14.1001L78.5 14.2001C78.4 14.2001 78.4 14.3 78.3 14.3C78.2 14.3 78.2 14.4001 78.1 14.4001L78 14.5001C77.9 14.6001 77.9 14.6001 77.8 14.7001L77.7 14.8C77.6 14.9 77.6 14.9001 77.5 15.0001L77.4 15.1001C77.4 15.2001 77.3 15.2 77.3 15.3L77.2 15.4001C77.2 15.5001 77.1 15.5001 77.1 15.6001C77.1 15.7001 77 15.7 77 15.8C77 15.8 77 15.9001 76.9 15.9001C76.9 16.0001 76.8 16.0001 76.8 16.1001V16.2001C76.8 16.3001 76.8 16.3001 76.7 16.4001C76.7 16.5001 76.7 16.5001 76.7 16.6001C76.7 16.7001 76.7 16.7 76.7 16.8C76.7 16.9 76.7 16.9001 76.7 17.0001C76.7 17.1001 76.7 17.1001 76.7 17.2001C76.7 17.3001 76.7 17.4001 76.7 17.4001V72.5001C76.7 74.6001 78.4 76.3 80.5 76.3C82.6 76.3 84.3 74.6001 84.3 72.5001V33.7001L104.6 74.2001C105.2 75.5001 106.6 76.3 108 76.3C109.5 76.3 110.8 75.5001 111.4 74.2001L131.7 33.7001V72.5001C131.7 74.6001 133.4 76.3 135.5 76.3C137.6 76.3 139.3 74.6001 139.3 72.5001V17.4001C139.1 17.5001 139.1 17.4001 139.1 17.4001ZM279.6 31.7001L281.9 26.2001L284.2 31.7001H279.6ZM274 36.3C273.9 36.6 273.8 36.8001 273.8 37.1001C273.8 38.1001 274.5 38.8 275.5 38.8C276.3 38.8 276.9 38.4001 277.2 37.7001L278.4 35.0001H285.7L286.8 37.6001C287.1 38.4001 287.7 38.9001 288.6 38.9001C289.6 38.9001 290.3 38.1001 290.3 37.1001C290.3 36.9001 290.2 36.6001 290.1 36.4001L284.3 23.3C283.9 22.4 283.2 21.9001 282.2 21.9001H282C281 21.9001 280.3 22.4 279.9 23.3L274 36.3ZM295 37.0001C295 38.0001 295.8 38.8 296.8 38.8C297.8 38.8 298.6 38.0001 298.6 37.0001V28.7001L301.8 33.6001C302.2 34.2001 302.7 34.5001 303.3 34.5001C304 34.5001 304.4 34.1001 304.8 33.6001L308 28.7001V37.0001C308 38.0001 308.8 38.8 309.8 38.8C310.8 38.8 311.6 38.0001 311.6 37.0001V23.8C311.6 22.8 310.8 22.0001 309.8 22.0001H309.4C308.7 22.0001 308.1 22.3001 307.8 22.9001L303.4 30.1001L299 22.9001C298.7 22.4001 298.1 22.0001 297.3 22.0001H296.9C295.9 22.0001 295.1 22.8 295.1 23.8V37.0001H295ZM318.1 36.8C318.1 37.8 318.9 38.6001 319.9 38.6001H329.2C330.1 38.6001 330.8 37.9001 330.8 37.0001C330.8 36.1001 330.1 35.4001 329.2 35.4001H321.7V31.9001H328C328.9 31.9001 329.6 31.2 329.6 30.3C329.6 29.4 328.9 28.7001 328 28.7001H321.7V25.3H329.1C330 25.3 330.7 24.6001 330.7 23.7001C330.7 22.8001 330 22.1001 329.1 22.1001H319.9C318.9 22.1001 318.1 22.9001 318.1 23.9001V36.8ZM340.1 30.1001V25.3H343.7C345.5 25.3 346.6 26.1001 346.6 27.7001C346.6 29.1001 345.6 30.0001 343.8 30.0001H340.1V30.1001ZM336.4 37.0001C336.4 38.0001 337.2 38.8 338.2 38.8C339.2 38.8 340 38.0001 340 37.0001V33.4001H342.9L346.5 37.9001C346.9 38.4001 347.5 38.8 348.3 38.8C349.2 38.8 350 38.1001 350 37.1001C350 36.5001 349.8 36.2001 349.4 35.7001L346.9 32.6001C348.9 31.8001 350.2 30.2001 350.2 27.5001C350.2 25.9001 349.7 24.6001 348.8 23.7001C347.7 22.6001 346.1 22.0001 344 22.0001H338.2C337.2 22.0001 336.4 22.8 336.4 23.8V37.0001ZM356.1 37.0001C356.1 38.0001 356.9 38.8 357.9 38.8C358.9 38.8 359.7 38.0001 359.7 37.0001V23.8C359.7 22.8 358.9 22.0001 357.9 22.0001C356.9 22.0001 356.1 22.8 356.1 23.8V37.0001ZM365.4 30.4001C365.4 35.2001 369 38.9001 373.9 38.9001C376.6 38.9001 378.3 38.1 379.8 36.8C380.1 36.5 380.4 36.1001 380.4 35.5001C380.4 34.6001 379.6 33.8 378.7 33.8C378.3 33.8 377.9 34.0001 377.6 34.2001C376.6 35.0001 375.5 35.5001 374 35.5001C371.2 35.5001 369.2 33.1 369.2 30.3C369.2 27.5 371.2 25.1001 374 25.1001C375.3 25.1001 376.4 25.5 377.4 26.3C377.7 26.5 378 26.7001 378.5 26.7001C379.5 26.7001 380.3 25.9001 380.3 24.9001C380.3 24.3001 380 23.7001 379.6 23.5001C378.2 22.5001 376.5 21.8 374.1 21.8C368.9 21.8 365.4 25.6001 365.4 30.4001ZM390.6 31.7001L392.9 26.2001L395.2 31.7001H390.6ZM385 36.3C384.9 36.6 384.8 36.8001 384.8 37.1001C384.8 38.1001 385.5 38.8 386.5 38.8C387.3 38.8 387.9 38.4001 388.2 37.7001L389.4 35.0001H396.7L397.8 37.6001C398.1 38.4001 398.7 38.9001 399.6 38.9001C400.6 38.9001 401.3 38.1001 401.3 37.1001C401.3 36.9001 401.2 36.6001 401.1 36.4001L395.3 23.3C394.9 22.4 394.2 21.9001 393.2 21.9001H393C392 21.9001 391.3 22.4 390.9 23.3L385 36.3ZM406 37.0001C406 38.0001 406.8 38.8 407.8 38.8C408.8 38.8 409.6 38.0001 409.6 37.0001V28.1001L416.9 37.7001C417.4 38.3001 417.9 38.8 418.8 38.8H418.9C419.9 38.8 420.7 38.0001 420.7 37.0001V23.8C420.7 22.8 419.9 22.0001 418.9 22.0001C417.9 22.0001 417.1 22.8 417.1 23.8V32.4001L410.1 23.1001C409.6 22.5001 409.1 22.0001 408.2 22.0001H407.8C406.8 22.0001 406 22.8 406 23.8V37.0001V37.0001ZM436.7 37.0001C436.7 38.0001 437.5 38.8 438.5 38.8C439.5 38.8 440.3 38.0001 440.3 37.0001V28.7001L443.5 33.6001C443.9 34.2001 444.4 34.5001 445 34.5001C445.7 34.5001 446.1 34.1001 446.5 33.6001L449.7 28.7001V37.0001C449.7 38.0001 450.5 38.8 451.5 38.8C452.5 38.8 453.3 38.0001 453.3 37.0001V23.8C453.3 22.8 452.5 22.0001 451.5 22.0001H451C450.3 22.0001 449.7 22.3001 449.4 22.9001L445 30.1001L440.6 22.9001C440.3 22.4001 439.7 22.0001 438.9 22.0001H438.5C437.5 22.0001 436.7 22.8 436.7 23.8V37.0001V37.0001ZM464 31.7001L466.3 26.2001L468.6 31.7001H464ZM458.3 36.3C458.2 36.6 458.1 36.8001 458.1 37.1001C458.1 38.1001 458.8 38.8 459.8 38.8C460.6 38.8 461.2 38.4001 461.5 37.7001L462.7 35.0001H470L471.1 37.6001C471.4 38.4001 472 38.9001 472.9 38.9001C473.9 38.9001 474.6 38.1001 474.6 37.1001C474.6 36.9001 474.5 36.6001 474.4 36.4001L468.6 23.3C468.2 22.4 467.5 21.9001 466.5 21.9001H466.3C465.3 21.9001 464.6 22.4 464.2 23.3L458.3 36.3ZM483 30.1001V25.3H486.6C488.4 25.3 489.5 26.1001 489.5 27.7001C489.5 29.1001 488.5 30.0001 486.7 30.0001H483V30.1001ZM479.4 37.0001C479.4 38.0001 480.2 38.8 481.2 38.8C482.2 38.8 483 38.0001 483 37.0001V33.4001H485.9L489.5 37.9001C489.9 38.4001 490.5 38.8 491.3 38.8C492.2 38.8 493 38.1001 493 37.1001C493 36.5001 492.8 36.2001 492.4 35.7001L489.9 32.6001C491.9 31.8001 493.2 30.2001 493.2 27.5001C493.2 25.9001 492.7 24.6001 491.8 23.7001C490.7 22.6001 489.1 22.0001 487 22.0001H481.2C480.2 22.0001 479.4 22.8 479.4 23.8V37.0001V37.0001ZM499 37.0001C499 38.0001 499.8 38.8 500.8 38.8C501.8 38.8 502.6 38.0001 502.6 37.0001V33.7001L504.7 31.8L509.4 38.0001C509.8 38.5001 510.2 38.9001 510.9 38.9001C512 38.9001 512.8 38.1001 512.8 37.1001C512.8 36.6001 512.6 36.2 512.3 35.8L507.2 29.4001L511.9 25.0001C512.3 24.6001 512.6 24.2001 512.6 23.6001C512.6 22.7001 511.9 21.9001 510.9 21.9001C510.3 21.9001 509.8 22.2001 509.4 22.6001L502.7 29.3V23.7001C502.7 22.7001 501.9 21.9001 500.9 21.9001C499.9 21.9001 499.1 22.7001 499.1 23.7001V37.0001H499ZM518.1 36.8C518.1 37.8 518.9 38.6001 519.9 38.6001H529.2C530.1 38.6001 530.8 37.9001 530.8 37.0001C530.8 36.1001 530.1 35.4001 529.2 35.4001H521.7V31.9001H528C528.9 31.9001 529.6 31.2 529.6 30.3C529.6 29.4 528.9 28.7001 528 28.7001H521.7V25.3H529.1C530 25.3 530.7 24.6001 530.7 23.7001C530.7 22.8001 530 22.1001 529.1 22.1001H519.9C518.9 22.1001 518.1 22.9001 518.1 23.9001V36.8M540.3 37.0001C540.3 38.0001 541.1 38.8 542.1 38.8C543.1 38.8 543.9 38.0001 543.9 37.0001V25.4001H547.4C548.3 25.4001 549.1 24.6001 549.1 23.7001C549.1 22.8001 548.3 22.0001 547.4 22.0001H536.7C535.8 22.0001 535 22.8001 535 23.7001C535 24.6001 535.8 25.4001 536.7 25.4001H540.2V37.0001H540.3ZM553.9 37.0001C553.9 38.0001 554.7 38.8 555.7 38.8C556.7 38.8 557.5 38.0001 557.5 37.0001V23.8C557.5 22.8 556.7 22.0001 555.7 22.0001C554.7 22.0001 553.9 22.8 553.9 23.8V37.0001ZM564.1 37.0001C564.1 38.0001 564.9 38.8 565.9 38.8C566.9 38.8 567.7 38.0001 567.7 37.0001V28.1001L575 37.7001C575.5 38.3001 576 38.8 576.9 38.8H577C578 38.8 578.8 38.0001 578.8 37.0001V23.8C578.8 22.8 578 22.0001 577 22.0001C576 22.0001 575.2 22.8 575.2 23.8V32.4001L568.2 23.1001C567.7 22.5001 567.2 22.0001 566.3 22.0001H565.9C564.9 22.0001 564.1 22.8 564.1 23.8V37.0001ZM584.4 30.4001C584.4 35.3001 588 38.9001 593.1 38.9001C595.6 38.9001 597.6 38.1001 598.9 37.2001C599.8 36.7001 600.2 35.9001 600.2 34.9001V30.9001C600.2 29.9001 599.4 29.1001 598.4 29.1001H594.2C593.3 29.1001 592.6 29.8001 592.6 30.7001C592.6 31.6001 593.3 32.3 594.2 32.3H596.7V34.7001C595.8 35.4001 594.6 35.7001 593.3 35.7001C590.4 35.7001 588.3 33.5001 588.3 30.4001C588.3 27.6001 590.4 25.2001 593.1 25.2001C594.7 25.2001 595.7 25.6 596.7 26.3C597 26.5 597.3 26.7001 597.8 26.7001C598.8 26.7001 599.6 25.9001 599.6 24.9001C599.6 24.2001 599.2 23.7001 598.8 23.4001C597.3 22.4001 595.6 21.8 593.1 21.8C588.1 21.8 584.4 25.6001 584.4 30.4001ZM279.6 61.0001L281.9 55.5001L284.2 61.0001H279.6ZM274 65.6001C273.9 65.9001 273.8 66.1001 273.8 66.4001C273.8 67.3001 274.5 68.1001 275.5 68.1001C276.3 68.1001 276.9 67.7001 277.2 67.0001L278.4 64.3H285.7L286.8 66.9001C287.1 67.7001 287.7 68.2001 288.6 68.2001C289.6 68.2001 290.3 67.4001 290.3 66.4001C290.3 66.2001 290.2 65.9001 290.1 65.7001L284.3 52.6001C283.9 51.7001 283.2 51.1001 282.2 51.1001H282C281 51.1001 280.3 51.6001 279.9 52.6001L274 65.6001ZM295.1 66.2001C297 67.5001 299.2 68.2001 301.3 68.2001C304.9 68.2001 307.4 66.4001 307.4 63.1001C307.4 60.2001 305.5 59.0001 302.1 58.1001C299.2 57.4001 298.5 57.0001 298.5 55.9001C298.5 55.1001 299.2 54.5001 300.6 54.5001C301.7 54.5001 302.9 54.9001 304.1 55.6001C304.4 55.8001 304.7 55.9001 305 55.9001C305.9 55.9001 306.7 55.2001 306.7 54.2001C306.7 53.5001 306.3 53 305.9 52.8C304.4 51.9 302.7 51.3 300.6 51.3C297.2 51.3 294.8 53.3 294.8 56.3C294.8 59.6 297 60.5001 300.3 61.4001C303.1 62.1001 303.6 62.6001 303.6 63.5001C303.6 64.5001 302.7 65.1001 301.2 65.1001C299.6 65.1001 298.2 64.5001 296.9 63.6001C296.7 63.4001 296.3 63.3 295.9 63.3C295 63.3 294.2 64.0001 294.2 65.0001C294.4 65.4001 294.7 65.9001 295.1 66.2001ZM312.6 66.2001C314.5 67.5001 316.7 68.2001 318.8 68.2001C322.4 68.2001 324.9 66.4001 324.9 63.1001C324.9 60.2001 323 59.0001 319.6 58.1001C316.7 57.4001 316 57.0001 316 55.9001C316 55.1001 316.7 54.5001 318.1 54.5001C319.2 54.5001 320.4 54.9001 321.6 55.6001C321.9 55.8001 322.2 55.9001 322.5 55.9001C323.4 55.9001 324.2 55.2001 324.2 54.2001C324.2 53.5001 323.8 53 323.4 52.8C321.9 51.9 320.2 51.3 318.1 51.3C314.7 51.3 312.3 53.3 312.3 56.3C312.3 59.6 314.5 60.5001 317.8 61.4001C320.6 62.1001 321.1 62.6001 321.1 63.5001C321.1 64.5001 320.2 65.1001 318.7 65.1001C317.1 65.1001 315.7 64.5001 314.4 63.6001C314.2 63.4001 313.8 63.3 313.4 63.3C312.4 63.3 311.7 64.0001 311.7 65.0001C312 65.4001 312.2 65.9001 312.6 66.2001ZM343.4 59.7001C343.4 62.5001 341.4 64.9001 338.4 64.9001C335.5 64.9001 333.4 62.5001 333.4 59.7001C333.4 56.9001 335.4 54.5001 338.4 54.5001C341.4 54.5001 343.4 56.8001 343.4 59.7001ZM329.5 59.7001C329.5 64.4001 333.2 68.2001 338.3 68.2001C343.4 68.2001 347.2 64.3001 347.2 59.6001C347.2 54.9001 343.5 51.1001 338.4 51.1001C333.2 51.0001 329.5 54.9001 329.5 59.7001ZM351.9 59.7001C351.9 64.5001 355.5 68.2001 360.4 68.2001C363.1 68.2001 364.8 67.4001 366.3 66.1001C366.6 65.8001 366.9 65.4 366.9 64.8C366.9 63.9 366.1 63.1001 365.2 63.1001C364.8 63.1001 364.4 63.3001 364.1 63.5001C363.1 64.3001 362 64.8 360.5 64.8C357.7 64.8 355.7 62.4001 355.7 59.6001C355.7 56.8001 357.7 54.4001 360.5 54.4001C361.8 54.4001 362.9 54.8001 363.9 55.6001C364.2 55.8001 364.5 56.0001 365 56.0001C366 56.0001 366.8 55.2001 366.8 54.2001C366.8 53.6001 366.5 53 366.1 52.8C364.7 51.8 363 51.1001 360.6 51.1001C355.5 51.0001 351.9 54.9001 351.9 59.7001ZM372.5 66.2001C372.5 67.2001 373.3 68.0001 374.3 68.0001C375.3 68.0001 376.1 67.2001 376.1 66.2001V53.0001C376.1 52.0001 375.3 51.2001 374.3 51.2001C373.3 51.2001 372.5 52.0001 372.5 53.0001V66.2001ZM386.9 61.0001L389.2 55.5001L391.5 61.0001H386.9ZM381.3 65.6001C381.2 65.9001 381.1 66.1001 381.1 66.4001C381.1 67.3001 381.8 68.1001 382.8 68.1001C383.6 68.1001 384.2 67.7001 384.5 67.0001L385.7 64.3H393L394.1 66.9001C394.4 67.7001 395 68.2001 395.9 68.2001C396.9 68.2001 397.6 67.4001 397.6 66.4001C397.6 66.2001 397.5 65.9001 397.4 65.7001L391.6 52.6001C391.2 51.7001 390.5 51.1001 389.5 51.1001H389.3C388.3 51.1001 387.6 51.6001 387.2 52.6001L381.3 65.6001ZM404.4 66.3C404.4 67.3 405.2 68.1001 406.2 68.1001C407.2 68.1001 408 67.3 408 66.3V54.7001H411.5C412.4 54.7001 413.2 53.9001 413.2 53.0001C413.2 52.1001 412.4 51.3 411.5 51.3H400.8C399.9 51.3 399.1 52.1001 399.1 53.0001C399.1 53.9001 399.9 54.7001 400.8 54.7001H404.3V66.3H404.4ZM418 66.2001C418 67.2001 418.8 68.0001 419.8 68.0001C420.8 68.0001 421.6 67.2001 421.6 66.2001V53.0001C421.6 52.0001 420.8 51.2001 419.8 51.2001C418.8 51.2001 418 52.0001 418 53.0001V66.2001ZM441.1 59.7001C441.1 62.5001 439.1 64.9001 436.1 64.9001C433.2 64.9001 431.1 62.5001 431.1 59.7001C431.1 56.9001 433.1 54.5001 436.1 54.5001C439 54.4001 441.1 56.8001 441.1 59.7001ZM427.3 59.7001C427.3 64.4001 431 68.2001 436.1 68.2001C441.2 68.2001 445 64.3001 445 59.6001C445 54.9001 441.3 51.1001 436.2 51.1001C431 51.0001 427.3 54.9001 427.3 59.7001ZM450.5 66.3C450.5 67.3 451.3 68.1001 452.3 68.1001C453.3 68.1001 454.1 67.3 454.1 66.3V57.4001L461.4 67.0001C461.9 67.6001 462.4 68.1001 463.3 68.1001H463.4C464.4 68.1001 465.2 67.3 465.2 66.3V53.0001C465.2 52.0001 464.4 51.2001 463.4 51.2001C462.4 51.2001 461.6 52.0001 461.6 53.0001V61.6001L454.6 52.3C454.1 51.7 453.6 51.2001 452.7 51.2001H452.3C451.3 51.2001 450.5 52.0001 450.5 53.0001V66.3V66.3ZM245 89.8C246.1 89.8 246.9 88.9001 246.9 87.9001V2.20007C246.9 1.10007 246 0.300049 245 0.300049C243.9 0.300049 243.1 1.20007 243.1 2.20007V87.9001C243.1 88.9001 244 89.8 245 89.8Z" fill="white"/>
</g>
<defs>
<clipPath id="clip0_22_606">
<rect width="601" height="90" fill="white"/>
</clipPath>
</defs>
</svg>
