<?xml version="1.0" encoding="UTF-8"?><svg xmlns="http://www.w3.org/2000/svg" viewBox="0 0 47.9 48"><defs><style>.d{fill:#353535;}.e{stroke-linecap:round;stroke-linejoin:round;}.e,.f{fill:none;stroke:#353535;stroke-width:2px;}.f{stroke-miterlimit:10;}</style></defs><g id="a"/><g id="b"><g id="c"><g><g><path class="f" d="M11,31.88v12.17c0,1.63,1.32,2.95,2.95,2.95h20c1.66,0,3-1.34,3-3v-12.12"/><path class="f" d="M36.95,29V3.95c0-1.63-1.32-2.95-2.95-2.95H13.95c-1.63,0-2.95,1.32-2.95,2.95V29"/></g><circle class="d" cx="23.95" cy="43" r="1"/></g><g><polygon class="e" points="32.95 26.69 23.95 30.44 14.95 26.69 14.95 14.19 23.95 10.44 32.95 14.19 32.95 26.69"/><polyline class="e" points="32.95 14.19 23.95 17.94 14.95 14.19"/></g><polyline class="e" points="10.83 23.38 1 27.44 23.95 37 46.9 27.44 37.01 23.19"/></g></g></svg>