<svg height="512pt" viewBox="0 -14 512 512" width="512pt" xmlns="http://www.w3.org/2000/svg"><path d="m120.347656 0h-110.382812c-5.503906 0-9.964844 4.460938-9.964844 9.964844v462.867187c0 5.503907 4.460938 9.964844 9.964844 9.964844h110.382812c5.503906 0 9.964844-4.460937 9.964844-9.964844v-462.867187c0-5.503906-4.460938-9.964844-9.964844-9.964844zm-9.964844 462.867188h-90.453124v-34.4375h31.296874c5.5 0 9.964844-4.460938 9.964844-9.964844s-4.464844-9.964844-9.964844-9.964844h-31.296874v-69.550781h31.296874c5.5 0 9.964844-4.460938 9.964844-9.964844s-4.464844-9.964844-9.964844-9.964844h-31.296874v-69.550781h31.296874c5.5 0 9.964844-4.464844 9.964844-9.96875 0-5.5-4.464844-9.964844-9.964844-9.964844h-31.296874v-69.546875h31.296874c5.5 0 9.964844-4.460937 9.964844-9.964843 0-5.503907-4.464844-9.964844-9.964844-9.964844h-31.296874v-69.554688h31.296874c5.5 0 9.964844-4.460937 9.964844-9.964844 0-5.503906-4.464844-9.964843-9.964844-9.964843h-31.296874v-30.644531h90.453124zm0 0"/><path d="m304.953125 98.324219c-.046875-.304688-.105469-.601563-.179687-.898438-.023438-.097656-.046876-.195312-.074219-.292969-.097657-.355468-.214844-.703124-.351563-1.039062-.007812-.03125-.019531-.058594-.027344-.085938-.160156-.378906-.339843-.742187-.539062-1.09375-.015625-.023437-.023438-.050781-.039062-.078124l-51.78125-89.84375c-1.703126-2.960938-4.808594-4.839844-8.21875-4.9804692-3.417969-.1445308-6.660157 1.4726562-8.605469 4.2773432l-62.277344 89.847657c-.007813.011719-.015625.023437-.023437.035156-.230469.339844-.441407.699219-.632813 1.066406-.039063.078125-.074219.152344-.109375.226563-.152344.3125-.285156.628906-.40625.957031-.027344.078125-.058594.152344-.082031.230469-.132813.390625-.246094.792968-.328125 1.203125-.003906.019531-.003906.042969-.007813.0625-.070312.367187-.117187.742187-.144531 1.125-.011719.121093-.015625.242187-.019531.367187-.003907.132813-.019531.265625-.019531.402344v373.527344c0 5.503906 4.460937 9.964844 9.964843 9.964844h114.058594c5.503906 0 9.964844-4.460938 9.964844-9.964844v-34.609375c0-.007813 0-.011719 0-.019531 0-.003907 0-.011719 0-.019532v-34.589844c0-.007812 0-.011718 0-.019531v-304.269531c0-.402344-.027344-.792969-.074219-1.183594-.015625-.101562-.03125-.203125-.046875-.304687zm-46.363281 214.078125c5.5 0 9.964844-4.460938 9.964844-9.964844v-192.660156h16.589843v284.339844h-60.066406v-188.875c0-5.5-4.460937-9.964844-9.964844-9.964844-5.503906 0-9.964843 4.464844-9.964843 9.964844v188.875h-14.132813v-284.339844h57.609375v192.660156c0 5.503906 4.460938 9.964844 9.964844 9.964844zm-67.574219 101.644531h94.128906v14.699219h-94.128906zm51.535156-385.472656 35.3125 61.273437h-77.78125zm-51.535156 434.800781v-14.699219h94.128906v14.699219zm0 0"/><path d="m213.140625 156.570312-.613281.144532c-5.355469 1.257812-8.679688 6.625-7.421875 11.980468 1.082031 4.589844 5.171875 7.6875 9.695312 7.6875.753907 0 1.519531-.085937 2.285157-.265624l.613281-.144532c5.359375-1.257812 8.683593-6.625 7.421875-11.980468-1.257813-5.355469-6.625-8.679688-11.980469-7.421876zm0 0"/><path d="m436.167969 224.964844v-16.882813c0-13.582031 9.148437-25.585937 22.246093-29.1875 21.71875-5.976562 36.886719-25.882812 36.886719-48.40625v-23.566406c0-5.503906-4.460937-9.96875-9.964843-9.96875-5.5 0-9.964844 4.464844-9.964844 9.96875v23.566406c0 13.582031-9.144532 25.585938-22.242188 29.1875-21.71875 5.976563-36.890625 25.878907-36.890625 48.40625v16.882813c-42.550781 4.453125-75.832031 40.53125-75.832031 84.238281v4.199219c0 5.503906 4.464844 9.964844 9.964844 9.964844 5.503906 0 9.96875-4.460938 9.96875-9.964844v-4.199219c0-35.714844 29.054687-64.773437 64.773437-64.773437h2.179688c35.71875 0 64.777343 29.058593 64.777343 64.773437v89.394531c0 35.71875-29.058593 64.777344-64.777343 64.777344h-2.179688c-35.71875 0-64.773437-29.058594-64.773437-64.777344v-8.714844c0-5.503906-4.464844-9.964843-9.96875-9.964843-5.5 0-9.964844 4.460937-9.964844 9.964843v8.714844c0 46.707032 38 84.707032 84.707031 84.707032h2.179688c46.707031 0 84.707031-38 84.707031-84.707032v-89.394531c0-43.707031-33.28125-79.785156-75.832031-84.238281zm0 0"/><path d="m436.167969 335.339844v-46.714844c0-5.503906-4.460938-9.964844-9.964844-9.964844-5.5 0-9.964844 4.460938-9.964844 9.964844v46.714844c0 5.503906 4.464844 9.964844 9.964844 9.964844 5.503906 0 9.964844-4.460938 9.964844-9.964844zm0 0"/><path d="m350.058594 360.546875c.753906 0 1.519531-.085937 2.289062-.265625l.609375-.144531c5.359375-1.257813 8.683594-6.621094 7.421875-11.980469-1.257812-5.355469-6.625-8.683594-11.976562-7.421875l-.613282.144531c-5.359374 1.257813-8.679687 6.625-7.421874 11.980469 1.078124 4.589844 5.171874 7.6875 9.691406 7.6875zm0 0"/></svg>