<svg width="339" height="172" viewBox="0 0 339 172" fill="none" xmlns="http://www.w3.org/2000/svg">
<g clip-path="url(#clip0_18_378)">
<path d="M6.66596 129.117C7.3366 130.579 8.40935 131.92 10.4394 131.92C13.2746 131.92 13.964 130.378 13.964 127.816V108.917H21.2044V127.816C21.2044 135.324 16.6267 138.427 10.8224 138.427C3.92666 138.427 1.12955 135.064 -0.000244141 131L6.66596 129.117Z" fill="white"/>
<path d="M34.0275 126.436H40.2149L37.131 118.127L34.0275 126.436ZM29.8709 137.626H22.0745L33.3189 108.917H40.9425L52.1867 137.626H44.3911L42.5133 132.581H31.7478L29.8709 137.626Z" fill="white"/>
<path d="M69.2366 126.355L75.9984 108.917H85.5761V137.626H78.3359V121.13L71.9183 137.626H66.5552L60.1376 121.13V137.626H52.8975V108.917H62.4752L69.2366 126.355Z" fill="white"/>
<path d="M110.102 120.068V126.235H97.2108V131.119H111.252V137.626H89.9702V108.917H110.946V115.424H97.2108V120.068H110.102Z" fill="white"/>
<path d="M132.715 116.245C129.765 114.904 127.332 114.623 125.302 114.623C123.234 114.623 121.299 115.284 121.299 116.986C121.299 118.928 122.869 119.327 125.915 120.029C132.907 121.631 136.872 123.912 136.872 129.238C136.872 135.565 132.313 138.427 124.919 138.427C120.015 138.427 115.82 137.226 113.253 135.084L116.74 129.799C119.019 131.22 121.969 131.92 124.536 131.92C126.95 131.92 129.631 131.481 129.631 129.238C129.631 127.335 127.754 127.015 124.517 126.335C117.218 124.733 114.058 121.871 114.058 117.186C114.058 112.06 117.314 108.116 124.919 108.116C129.268 108.116 132.945 108.917 136.202 110.96L132.715 116.245Z" fill="white"/>
<path d="M167.637 126.355L174.399 108.917H183.976V137.626H176.736V121.13L170.319 137.626H164.955L158.538 121.13V137.626H151.297V108.917H160.875L167.637 126.355Z" fill="white"/>
<path d="M196.99 126.436H203.178L200.095 118.127L196.99 126.436ZM192.834 137.626H185.037L196.282 108.917H203.905L215.151 137.626H207.354L205.477 132.581H194.71L192.834 137.626Z" fill="white"/>
<path d="M223.494 131.119H228.148C232.745 131.119 234.604 127.596 234.604 123.272C234.604 118.947 232.745 115.424 228.148 115.424H223.494V131.119ZM228.148 137.626H216.254V108.917H228.148C237.209 108.917 242.036 114.604 242.036 123.272C242.036 131.961 237.017 137.626 228.148 137.626Z" fill="white"/>
<path d="M245 108.917H252.24V137.626H245V108.917Z" fill="white"/>
<path d="M274.366 116.245C271.416 114.904 268.983 114.623 266.953 114.623C264.884 114.623 262.95 115.284 262.95 116.986C262.95 118.928 264.52 119.327 267.566 120.029C274.557 121.631 278.522 123.912 278.522 129.238C278.522 135.565 273.963 138.427 266.57 138.427C261.665 138.427 257.471 137.226 254.904 135.084L258.39 129.799C260.67 131.22 263.62 131.92 266.187 131.92C268.599 131.92 271.282 131.481 271.282 129.238C271.282 127.335 269.405 127.015 266.168 126.335C258.869 124.733 255.708 121.871 255.708 117.186C255.708 112.06 258.965 108.116 266.57 108.116C270.918 108.116 274.596 108.917 277.852 110.96L274.366 116.245Z" fill="white"/>
<path d="M302.747 123.272C302.747 118.727 300.352 114.623 295.199 114.623C290.048 114.623 287.652 118.727 287.652 123.272C287.652 127.816 290.048 131.92 295.199 131.92C300.352 131.92 302.747 127.816 302.747 123.272ZM280.221 123.272C280.221 115.064 285.066 108.116 295.199 108.116C305.332 108.116 310.179 115.064 310.179 123.272C310.179 131.481 305.332 138.427 295.199 138.427C285.066 138.427 280.221 131.481 280.221 123.272Z" fill="white"/>
<path d="M313.062 108.917H321.76L331.758 126.255V108.917H338.999V137.626H330.303L320.303 120.289V137.626H313.062V108.917Z" fill="white"/>
<path d="M48.4976 169.055C51.8837 169.055 53.003 166.866 53.003 163.387V155.869H50.9895V152.926H58.4152V155.869H56.4017V163.387C56.4017 168.729 53.9854 172 48.4976 172C43.0233 172 40.607 168.729 40.607 163.387V155.869H38.593V152.926H46.0184V155.869H44.0049V163.387C44.0049 166.866 45.1124 169.055 48.4976 169.055Z" fill="white"/>
<path d="M70.6653 168.664H72.6792V155.869H70.6653V152.925H77.0093L85.1013 166.722V155.869H83.0874V152.925H90.5127V155.869H88.4992V171.608H84.1699L76.0779 157.81V168.664H78.0914V171.608H70.6653V168.664Z" fill="white"/>
<path d="M108.176 168.664H110.189V171.608H102.764V168.664H104.778V155.869H102.764V152.925H110.189V155.869H108.176V168.664Z" fill="white"/>
<path d="M123.55 155.869H121.549V152.925H128.974V155.869H127.086L131.303 166.774L135.532 155.869H133.644V152.925H141.069V155.869H139.068L132.75 171.608H129.868L123.55 155.869Z" fill="white"/>
<path d="M152.306 168.664H154.32V155.869H152.306V152.925H168.126V157.889H164.728V155.869H157.718V160.612H164.728V163.557H157.718V168.664H164.854V166.645H168.252V171.608H152.306V168.664Z" fill="white"/>
<path d="M185.654 161.759H189.896C192.261 161.759 193.243 160.872 193.243 158.814C193.243 156.755 192.261 155.869 189.896 155.869H185.654V161.759ZM180.242 171.608V168.664H182.256V155.869H180.242V152.925H189.896C194.553 152.925 196.666 155.205 196.666 158.814C196.666 162.11 194.779 163.765 192.513 164.442L194.892 168.664H196.918V171.608H192.715L188.876 164.704H185.654V168.664H187.668V171.608H180.242Z" fill="white"/>
<path d="M212.495 168.352C212.495 168.352 213.98 169.055 216.409 169.055C218.763 169.055 219.92 168.364 219.92 166.501C219.92 165.081 218.788 164.143 215.893 163.518C211.123 162.488 209.247 160.43 209.247 157.654C209.247 154.892 211.261 152.534 215.981 152.534C219.695 152.534 222.451 153.706 222.451 153.706V157.889H219.053V155.805C219.053 155.805 217.681 155.478 215.981 155.478C213.942 155.478 212.671 156.13 212.671 157.654C212.671 159.192 213.917 159.882 216.509 160.455C221.079 161.446 223.344 163.257 223.344 166.501C223.344 170.41 220.399 172 216.409 172C211.513 172 209.097 169.993 209.097 169.993V166.422H212.495V168.352Z" fill="white"/>
<path d="M241.023 168.664H243.037V171.608H235.611V168.664H237.625V155.869H235.611V152.925H243.037V155.869H241.023V168.664Z" fill="white"/>
<path d="M265.468 168.664H267.482V171.608H260.057V168.664H262.071V155.869H258.938V157.889H255.538V152.925H272.001V157.889H268.603V155.869H265.468V168.664Z" fill="white"/>
<path d="M285.383 155.869H283.495V152.925H290.92V155.869H289.02L292.732 161.667L296.433 155.869H294.545V152.925H301.969V155.869H300.083L294.432 164.481V168.664H296.445V171.608H289.02V168.664H291.034V164.468L285.383 155.869Z" fill="white"/>
<path d="M89.5673 3.75061L81.8781 34.8828H49.9232L43.6682 60.2136C42.3534 65.5309 43.4712 71.0055 46.733 75.2335C49.9948 79.4595 54.9734 81.8847 60.3915 81.8847H259.137C269.623 81.8847 279.079 74.4131 281.622 64.1188L296.528 3.75061H89.5673ZM301.308 -0.00206757L285.25 65.0218C282.3 76.9669 271.317 85.637 259.137 85.637H60.3915C53.8073 85.637 47.751 82.6825 43.7762 77.5308C39.8101 72.389 38.4485 65.7481 40.0384 59.3102L46.9989 31.1301H78.9522L86.6414 -0.00206757H301.308Z" fill="white"/>
<path d="M96.0306 12.1257L84.4639 58.9544H74.5622L78.44 43.2579H56.3868L51.7687 61.9598C51.0684 64.7947 51.6635 67.7119 53.4016 69.9647C55.1405 72.2179 57.7938 73.5105 60.6821 73.5105H93.3307C99.9876 73.5105 105.989 68.7674 107.603 62.2318L119.98 12.1257H96.0306Z" fill="white"/>
<path d="M181.02 12.1591L164.022 42.8124L160.991 12.1591H129.927L114.767 73.5427H138.716L147.285 38.8528L150.131 73.5427H167.604L187.69 38.6773L179.078 73.5427H203.028L218.189 12.1591H181.02Z" fill="white"/>
<path d="M261.98 12.1257L250.413 58.9544H240.511L252.071 12.1599H228.121L215.823 61.9598C215.123 64.7947 215.718 67.7119 217.456 69.9647C219.193 72.2179 221.848 73.5105 224.735 73.5105H259.279C265.937 73.5105 271.939 68.7674 273.552 62.2318L285.929 12.1257H261.98Z" fill="white"/>
<path d="M313.892 166.195V166.933H314.741C315.013 166.933 315.155 166.81 315.155 166.565C315.155 166.329 315.013 166.195 314.741 166.195H313.892ZM312.969 169.288V165.278H314.741C315.503 165.278 316.078 165.732 316.078 166.565C316.078 167.188 315.739 167.566 315.343 167.718L316.153 169.288H315.174L314.439 167.859H313.892V169.288H312.969ZM314.42 170.534C316.181 170.534 317.613 169.098 317.613 167.33C317.613 165.562 316.181 164.125 314.42 164.125C312.659 164.125 311.226 165.562 311.226 167.33C311.226 169.098 312.659 170.534 314.42 170.534ZM314.42 163.085C316.756 163.085 318.649 164.985 318.649 167.33C318.649 169.674 316.756 171.574 314.42 171.574C312.084 171.574 310.19 169.674 310.19 167.33C310.19 164.985 312.084 163.085 314.42 163.085Z" fill="white"/>
</g>
<defs>
<clipPath id="clip0_18_378">
<rect width="339" height="172" fill="white"/>
</clipPath>
</defs>
</svg>
