<svg xmlns="http://www.w3.org/2000/svg" width="620.854" height="575.277" viewBox="0 0 620.854 575.277"><g transform="translate(-730.366 -600.987)"><path d="M1197.64,628.653a122.814,122.814,0,0,0-48.213-23.6,156.733,156.733,0,0,0-30.719-3.864c-7.731-.2-15.461-.2-23.191-.2H986.07c-7.73,0-15.46,0-23.191.2a156.835,156.835,0,0,0-30.719,3.864,122.807,122.807,0,0,0-48.213,23.6,120.885,120.885,0,0,0,0,188.785,122.826,122.826,0,0,0,48.213,23.6,156.753,156.753,0,0,0,30.719,3.865c7.731.2,15.462.2,23.191.2h109.447c7.731,0,15.46,0,23.191-.2a156.744,156.744,0,0,0,30.719-3.865,122.819,122.819,0,0,0,48.213-23.6,120.884,120.884,0,0,0,0-188.785ZM1144.34,755.8a43.851,43.851,0,0,1-17.9,6.917c-6.51,1.017-12.817.814-19.326.814H974.473c-6.509,0-12.816.2-19.326-.814a43.857,43.857,0,0,1-17.9-6.917,40.059,40.059,0,0,1-17.291-32.753,39.513,39.513,0,0,1,17.291-32.753,43.855,43.855,0,0,1,17.9-6.916c6.51-1.018,12.817-.814,19.326-.814h132.639c6.509,0,12.816-.205,19.326.814a43.855,43.855,0,0,1,17.9,6.916,40.062,40.062,0,0,1,17.292,32.753A39.521,39.521,0,0,1,1144.34,755.8Z"/><path d="M783.777,962.581a53.222,53.222,0,0,0-38.1,15.41c-10.1,10.187-15.259,24.093-15.307,38.236s5.015,28.087,15.043,38.345a54.359,54.359,0,0,0,76.1.262c10.1-10.187,15.258-24.093,15.3-38.235s-5.015-28.088-15.044-38.345A53.219,53.219,0,0,0,783.777,962.581Zm28.394,60.139a31.7,31.7,0,0,1-1.673,5.793,28.688,28.688,0,0,1-2.62,5.095,26.858,26.858,0,0,1-3.449,4.287,26.588,26.588,0,0,1-4.239,3.47,28.1,28.1,0,0,1-5.011,2.619,30.317,30.317,0,0,1-5.658,1.649,31.92,31.92,0,0,1-12.057-.043,30.3,30.3,0,0,1-5.645-1.686,28.065,28.065,0,0,1-4.993-2.653,26.567,26.567,0,0,1-7.635-7.81,29.014,29.014,0,0,1-2.586-5.115,31.866,31.866,0,0,1-1.632-5.8,34.127,34.127,0,0,1,.043-12.417,31.93,31.93,0,0,1,1.671-5.793,29.087,29.087,0,0,1,2.62-5.095A26.541,26.541,0,0,1,767,991.458a28.083,28.083,0,0,1,5.009-2.619,30.355,30.355,0,0,1,5.658-1.649,31.946,31.946,0,0,1,12.057.042,30.226,30.226,0,0,1,5.646,1.687,27.956,27.956,0,0,1,4.992,2.653,26.5,26.5,0,0,1,7.635,7.81,28.944,28.944,0,0,1,2.586,5.115,31.657,31.657,0,0,1,1.632,5.8,34.106,34.106,0,0,1-.042,12.419Z"/><path d="M1218.19,1013.4c-.019,2.833-.031,5.762-.217,8.591a47.368,47.368,0,0,1-.659,5.479,26.781,26.781,0,0,1-3.621,9.578c-4.545,7.122-12.528,10.621-20.647,10.725-8.25.1-16.1-3.279-20.512-10.655a29.423,29.423,0,0,1-3.488-9.643,84.643,84.643,0,0,1-1.2-13.869c-.071-2.991-.093-5.981-.1-8.972-.025-5.091-.024-10.377-.025-15.469,0-8.089,0-16.407,0-24.462h-24.486c0,8.055-.011,33.426.038,41.8.024,4.007.058,8.112.182,12.119.09,2.93.229,5.9.489,8.822.619,6.933,1.9,13.709,5.059,20.067,6.479,13.036,19.062,20.586,33.092,22.245a51.812,51.812,0,0,0,20.6-1.746c6.384-1.875,13.157-5.228,17.9-10.132.228,3.3.459,6.7.689,9.925h21.372V964.7h-24.434C1218.22,971.148,1218.23,1006.82,1218.19,1013.4Z"/><path d="M1349.64,1027.43c-3.56-9.959-12.251-16.058-21.391-19.642a105.44,105.44,0,0,0-15.867-4.469c-2.363-.524-4.726-1.035-7.068-1.654a40.97,40.97,0,0,1-5.9-1.963,14.455,14.455,0,0,1-5.582-3.9,7.046,7.046,0,0,1-1.635-5.31,8.651,8.651,0,0,1,3.419-5.641,14.773,14.773,0,0,1,4.026-2.258,23.414,23.414,0,0,1,5.821-1.374,37.785,37.785,0,0,1,11.977.68,52.214,52.214,0,0,1,16.549,6.726q6.122-8.391,12.246-16.78a62.643,62.643,0,0,0-27.445-11.2,60.3,60.3,0,0,0-16.832-.2,48.613,48.613,0,0,0-12.557,3.31,34.707,34.707,0,0,0-13.848,10.083,30.491,30.491,0,0,0-5.753,11.149,27.177,27.177,0,0,0,.164,15.415,25.658,25.658,0,0,0,7.8,11.722c7.633,6.626,18.293,9.032,27.468,11.013,3.213.693,6.427,1.358,9.592,2.266a31.758,31.758,0,0,1,7.558,3.066,12.986,12.986,0,0,1,4.613,4.373,8.523,8.523,0,0,1,1.219,5.228,9,9,0,0,1-1.911,4.646,13.321,13.321,0,0,1-4.7,3.688,23.72,23.72,0,0,1-7.529,2.114,44.6,44.6,0,0,1-10.9-.083,50.306,50.306,0,0,1-11.543-2.808,58.937,58.937,0,0,1-15.613-8.862q-6.532,8.724-13.059,17.446a71.363,71.363,0,0,0,26.3,13.95,68.713,68.713,0,0,0,16.363,2.595,63.569,63.569,0,0,0,13.341-.87,47.183,47.183,0,0,0,16.232-5.779,33.4,33.4,0,0,0,9.438-8.315,31.894,31.894,0,0,0,6.3-14.971A28.025,28.025,0,0,0,1349.64,1027.43Z"/><path d="M916.056,1045.27a33.1,33.1,0,0,1-17.389-.717,27.151,27.151,0,0,1-13.95-10.2,31.639,31.639,0,0,1-5.509-16.475,33.174,33.174,0,0,1,3.516-17.023A24.955,24.955,0,0,1,895.448,989.2a31.721,31.721,0,0,1,7.393-2.16,33.922,33.922,0,0,1,9.841-.219,38.841,38.841,0,0,1,16.363,6.07q7.38-9.371,14.763-18.739A55.2,55.2,0,0,0,914.9,962.406a58.1,58.1,0,0,0-30.857,5.024,49.037,49.037,0,0,0-22.506,21.458,59.262,59.262,0,0,0-6.586,30.567,56.369,56.369,0,0,0,9.756,29.663,49.733,49.733,0,0,0,24.977,18.545,59.4,59.4,0,0,0,31.221,1.807,52.5,52.5,0,0,0,27.349-14.935q-8.392-8.663-16.788-17.327A33.088,33.088,0,0,1,916.056,1045.27Z"/><rect width="25.776" height="144.355" transform="translate(1091.22 923.452)"/><path d="M1038.32,1013.4c-.018,2.833-.031,5.762-.216,8.591a47.129,47.129,0,0,1-.659,5.479,26.781,26.781,0,0,1-3.621,9.578c-4.546,7.122-12.529,10.621-20.648,10.725-8.248.1-16.095-3.279-20.512-10.655a29.37,29.37,0,0,1-3.486-9.643,84.523,84.523,0,0,1-1.2-13.869c-.071-2.991-.093-5.981-.1-8.972-.026-5.091-.024-10.377-.026-15.469,0-8.089,0-16.407,0-24.462H963.363c0,8.055-.011,33.426.038,41.8.024,4.007.058,8.112.182,12.119.091,2.93.23,5.9.49,8.822.618,6.933,1.9,13.709,5.059,20.067,6.48,13.036,19.061,20.586,33.091,22.245a51.814,51.814,0,0,0,20.6-1.746c6.383-1.875,13.157-5.228,17.9-10.132.229,3.3.46,6.7.69,9.925h20.811V964.7h-23.872C1038.35,971.148,1038.36,1006.82,1038.32,1013.4Z"/><path d="M855.589,1124.2a20.139,20.139,0,0,1,5.065.563v4.222a12.456,12.456,0,0,0-4.081-.563c-4.362,0-6.4,2.392-6.4,6.755v7.74h9.5l-.281,4.362h-9.217v28.214h-5.206v-28.214h-7.036v-4.362h7.036v-7.88C844.965,1128,848.624,1124.2,855.589,1124.2Zm22.093,18.29a10.557,10.557,0,0,1,2.814.281v4.644a9.108,9.108,0,0,0-2.673-.281c-5.066,0-8.373,3.87-8.373,10.343v18.012h-5.207v-32.576h4.925v5.981C870.083,1144.96,873.249,1142.49,877.682,1142.49Zm33.21,14.08v5.136c0,8.654-5.558,14.494-14.072,14.494-8.584,0-14.142-5.84-14.142-14.494v-5.136c0-8.584,5.558-14.494,14.142-14.494C905.333,1142.07,910.892,1147.98,910.892,1156.57Zm-5.136.07c0-5.84-3.025-10.483-8.936-10.483-5.981,0-9.006,4.643-9.006,10.483v5c0,5.91,3.025,10.484,9.006,10.484,5.91,0,8.936-4.574,8.936-10.484Zm55.513-3.17v22.023h-5.207v-21.53c0-4.644-2.322-7.67-6.9-7.67-4.784,0-7.528,3.659-7.528,8.3v20.9h-5.207v-21.53c0-4.644-2.392-7.67-6.9-7.67-4.784,0-7.528,3.8-7.528,8.8v20.4H916.8v-32.576h4.925v5.347c1.407-4.011,4.644-6.192,9.217-6.192,4.714,0,8.091,2.041,9.639,5.77,1.688-3.659,5.488-5.77,9.921-5.77C957.188,1142.07,961.269,1146.22,961.269,1153.47Z"/><path d="M991.722,1136.86V1142h8.443l-.844,8.3h-7.6v25.189H981.59V1150.3h-6.825V1142h6.825V1137c0-8.373,3.378-12.806,12.8-12.806a47.654,47.654,0,0,1,5.91.352v7.81h-4.5C992.636,1132.36,991.722,1133.77,991.722,1136.86Z"/><path d="M1014.59,1141.3c5.065,0,8.161,2.6,9.639,5.84V1142h9.71v33.491h-9.71v-5.066c-1.407,3.237-4.574,5.77-9.639,5.77-9.288,0-13.72-7.036-13.72-16.394v-2.111C1000.86,1148.33,1005.3,1141.3,1014.59,1141.3Zm2.95,26.94c4.151,0,6.262-3.025,6.262-7.81v-3.378c0-4.785-2.111-7.81-6.262-7.81-4.714,0-6.543,3.307-6.543,8.3v2.392C1011,1164.94,1012.83,1168.24,1017.54,1168.24Z"/><path d="M1055.04,1141.3c3.94,0,7.668.844,9.709,2.251l-2.252,7.177a15.941,15.941,0,0,0-6.754-1.548c-5.488,0-7.88,3.166-7.88,8.584v1.97c0,5.418,2.392,8.584,7.88,8.584a15.943,15.943,0,0,0,6.754-1.548l2.252,7.177c-2.041,1.407-5.769,2.252-9.709,2.252-11.892,0-17.309-6.4-17.309-16.675v-1.548C1037.73,1147.7,1043.15,1141.3,1055.04,1141.3Z"/><path d="M1066.08,1160.01v-2.955c0-9.5,5.417-15.76,16.463-15.76,10.413,0,14.987,6.332,14.987,15.62v5.348h-21.319c.212,4.573,2.252,6.614,7.881,6.614a28.764,28.764,0,0,0,10.765-2.041l1.829,6.966c-2.674,1.407-8.161,2.462-13.017,2.462C1070.87,1176.27,1066.08,1169.86,1066.08,1160.01Zm10.13-4.36h12.243v-.844c0-3.659-1.477-6.543-5.911-6.543C1077.97,1148.26,1076.21,1151.15,1076.21,1155.65Z"/><path d="M1121.31,1176.2c-5.066,0-8.583-2.533-9.991-5.77v5.066h-9.569v-50.307l10.132-.915v22.374c1.477-2.955,4.714-5.348,9.428-5.348,9.288,0,13.791,7.036,13.791,16.394v2.111C1135.1,1169.16,1130.6,1176.2,1121.31,1176.2Zm-3.02-26.95c-4.152,0-6.4,2.955-6.4,7.74v3.518c0,4.785,2.251,7.74,6.4,7.74,4.854,0,6.683-3.518,6.683-8.232v-2.533C1124.97,1152.77,1123.14,1149.25,1118.29,1149.25Z"/><path d="M1138.48,1159.59V1157.9c0-9.639,5.488-16.6,16.675-16.6s16.675,6.966,16.675,16.6v1.688c0,9.639-5.489,16.6-16.675,16.6S1138.48,1169.23,1138.48,1159.59Zm16.67-10.34c-4.715,0-6.544,3.518-6.544,7.951v3.1c0,4.432,1.829,7.951,6.544,7.951s6.543-3.518,6.543-7.951v-3.1C1161.69,1152.77,1159.86,1149.25,1155.15,1149.25Z"/><path d="M1175.2,1159.59V1157.9c0-9.639,5.488-16.6,16.675-16.6s16.675,6.966,16.675,16.6v1.688c0,9.639-5.489,16.6-16.675,16.6S1175.2,1169.23,1175.2,1159.59Zm16.67-10.34c-4.715,0-6.544,3.518-6.544,7.951v3.1c0,4.432,1.829,7.951,6.544,7.951s6.543-3.518,6.543-7.951v-3.1C1198.42,1152.77,1196.59,1149.25,1191.87,1149.25Z"/><path d="M1232.47,1142h10.765l-10.483,16.534,10.906,16.957h-10.766l-10.413-16.394v16.394h-10.132v-50.307l10.132-.915v33.7Z"/></g></svg>