
<svg xmlns="http://www.w3.org/2000/svg" xmlns:xlink="http://www.w3.org/1999/xlink" width="77.647" height="77.647" viewBox="0 0 77.647 77.647">
  <defs>
    <clipPath id="clip-path">
      <rect id="Rectangle_22" data-name="Rectangle 22" width="77.647" height="77.647" transform="translate(5.176)" fill="#303030"/>
    </clipPath>
  </defs>
  <g id="Logo" transform="translate(-5.176)">
    <rect id="Background" width="77.647" height="77.647" transform="translate(5.177)" fill="#303030"/>
    <g id="MD" clip-path="url(#clip-path)">
      <path id="Path_119" data-name="Path 119" d="M3.468-35.751H13.617L23.97-14.841l10.3-20.91H44.421V0H36.159l-.051-22.644L26.979-3.57H20.961l-9.18-19.074V0H3.468Zm63.291,0a21.17,21.17,0,0,1,9.919,2.244,16.426,16.426,0,0,1,6.706,6.3,17.941,17.941,0,0,1,2.4,9.307,17.929,17.929,0,0,1-2.423,9.333,16.4,16.4,0,0,1-6.834,6.324A22.024,22.024,0,0,1,66.4,0H51.357V-35.751Zm.255,28.2a9.023,9.023,0,0,0,4.794-1.275,8.666,8.666,0,0,0,3.264-3.621A11.815,11.815,0,0,0,76.245-17.8,11.326,11.326,0,0,0,75-23.2a9.132,9.132,0,0,0-3.442-3.646,9.61,9.61,0,0,0-5-1.3H60.69v20.6Z" transform="translate(0 55.471)" fill="#fff"/>
    </g>
  </g>
</svg>