<svg xmlns="http://www.w3.org/2000/svg" width="37.92" height="22.976" viewBox="0 0 37.92 22.976">
  <path d="M-39.456,0V-22.784h3.136l4.928,13.728h.064V-22.784h3.264V0h-3.072l-4.992-13.7h-.064V0ZM-25.12,0V-22.784h4.9a7.278,7.278,0,0,1,2.368.352A4.543,4.543,0,0,1-16-21.184a4.88,4.88,0,0,1,1.152,2.1,13.108,13.108,0,0,1,.32,3.248,16.111,16.111,0,0,1-.176,2.592,5.419,5.419,0,0,1-.752,1.984A4.764,4.764,0,0,1-17.248-9.52a6.031,6.031,0,0,1-2.944.624h-1.664V0Zm3.264-19.712v7.744h1.568a3.336,3.336,0,0,0,1.536-.288,1.812,1.812,0,0,0,.8-.8,2.924,2.924,0,0,0,.3-1.184q.048-.7.048-1.568,0-.8-.032-1.52a3.288,3.288,0,0,0-.288-1.264,1.817,1.817,0,0,0-.768-.832,3.049,3.049,0,0,0-1.472-.288Zm20.32-3.072V-5.12a5.236,5.236,0,0,1-.4,2.064,5.257,5.257,0,0,1-1.136,1.68,5.43,5.43,0,0,1-1.7,1.152A5.1,5.1,0,0,1-6.816.192,4.982,4.982,0,0,1-8.848-.224a5.485,5.485,0,0,1-1.68-1.152,5.485,5.485,0,0,1-1.152-1.68A5.061,5.061,0,0,1-12.1-5.12V-22.784h3.264V-5.44a2.444,2.444,0,0,0,.576,1.792,1.954,1.954,0,0,0,1.44.576,1.954,1.954,0,0,0,1.44-.576A2.444,2.444,0,0,0-4.8-5.44V-22.784Z" transform="translate(39.456 22.784)" />
</svg>