<svg width="287" height="191" viewBox="0 0 287 191" fill="none" xmlns="http://www.w3.org/2000/svg">
<path d="M262.701 40.874C262.701 40.874 191.333 28.459 143.883 28.459C96.4319 28.459 26.5952 40.874 26.5952 40.874C21.2379 41.638 17.0286 46.222 17.0286 51.761V144.014C17.0286 150.126 22.0032 154.901 27.9346 154.901H260.405C266.527 154.901 271.311 149.935 271.311 144.014V51.57C271.693 46.222 267.867 41.638 262.701 40.874Z" fill="#0B0204"/>
<path d="M36.3531 130.262C38.0751 130.262 39.2231 131.026 39.6058 132.363H43.4325C43.0498 129.307 40.3711 127.397 36.5445 127.397C31.5698 127.397 28.3171 130.262 28.3171 134.846C28.3171 139.239 31.5698 142.104 36.1618 142.104C40.1798 142.104 42.6671 140.194 43.2411 136.756H39.4145C39.2231 138.284 38.0751 139.048 36.1618 139.048C33.8658 139.048 32.5265 137.52 32.5265 134.655C32.7178 131.79 34.2485 130.262 36.3531 130.262ZM50.7031 130.835C46.6851 130.835 44.3891 132.936 44.3891 136.374C44.3891 139.812 46.6851 141.913 50.7031 141.913C54.7211 141.913 57.0171 139.812 57.0171 136.374C57.0171 132.936 54.7211 130.835 50.7031 130.835ZM50.7031 139.43C49.1725 139.43 48.4071 138.475 48.4071 136.565C48.4071 134.655 49.1725 133.7 50.7031 133.7C52.2338 133.7 52.9991 134.655 52.9991 136.565C52.9991 138.284 52.2338 139.43 50.7031 139.43ZM72.7065 131.026C71.1758 131.026 69.8365 131.599 69.0711 132.745C68.4971 131.599 67.3491 131.026 65.6271 131.026C64.0965 131.026 62.9485 131.599 61.9918 132.745V131.408H58.1651V141.722H61.9918V136.183C61.9918 134.464 62.5658 133.7 63.9051 133.7C65.2445 133.7 65.6271 134.273 65.6271 135.801V141.722H69.0711V136.183C69.0711 134.464 69.6451 133.7 70.9845 133.7C72.3238 133.7 72.7065 134.273 72.7065 135.801V141.722H76.5331V134.846C76.7245 132.172 75.3851 131.026 72.7065 131.026ZM92.9878 131.026C91.4571 131.026 90.1178 131.599 89.3525 132.745C88.7785 131.599 87.6305 131.026 85.9085 131.026C84.3778 131.026 83.2298 131.599 82.2731 132.745V131.408H78.4465V141.722H82.2731V136.183C82.2731 134.464 82.8471 133.7 84.1865 133.7C85.5258 133.7 85.9085 134.273 85.9085 135.801V141.722H89.3525V136.183C89.3525 134.464 89.9265 133.7 91.2658 133.7C92.6051 133.7 92.9878 134.273 92.9878 135.801V141.722H96.8145V134.846C96.8145 132.172 95.4751 131.026 92.9878 131.026ZM104.085 130.835C100.45 130.835 98.1538 132.936 98.1538 136.374C98.1538 139.812 100.45 141.913 104.085 141.913C107.146 141.913 109.251 140.576 110.016 138.284H106.19C105.998 139.048 105.233 139.43 104.276 139.43C102.937 139.43 102.172 138.666 102.172 137.138H110.208V136.565C110.208 132.936 107.912 130.835 104.085 130.835ZM101.98 135.419C102.172 134.082 102.937 133.318 104.276 133.318C105.616 133.318 106.572 134.082 106.572 135.419H101.98ZM115.374 133.127V131.217H111.547V141.531H115.374V138.093C115.374 136.756 115.374 135.801 115.756 135.228C116.139 134.655 116.904 134.273 118.244 134.273H119.2V130.835C117.287 131.026 116.139 131.599 115.374 133.127ZM125.897 133.509C126.854 133.509 127.428 134.082 127.619 135.037H131.637C131.446 132.554 129.341 131.026 125.897 131.026C122.07 131.026 119.774 133.127 119.774 136.756C119.774 140.003 122.07 142.104 125.706 142.104C128.958 142.104 131.254 140.576 131.637 137.902H127.81C127.619 138.857 127.045 139.43 125.897 139.43C124.558 139.43 123.792 138.475 123.792 136.565C123.792 134.464 124.366 133.509 125.897 133.509ZM132.785 127.588H136.612V130.262H132.785V127.588ZM132.785 131.217H136.612V141.531H132.785V131.217ZM149.24 139.621V135.61C149.24 134.273 149.24 133.127 148.474 132.363C147.709 131.408 146.178 131.026 144.074 131.026C140.63 131.026 138.908 132.172 138.525 134.464H142.16C142.352 133.7 142.926 133.318 144.074 133.318C145.03 133.318 145.604 133.7 145.604 134.273V134.464C145.604 135.228 144.074 135.037 141.395 135.61C139.29 135.992 138.142 137.138 138.142 138.857C138.142 140.767 139.482 141.913 141.969 141.913C143.5 141.913 144.648 141.531 145.796 140.576C145.796 140.958 145.987 141.34 145.987 141.722H150.005V141.34C149.431 141.149 149.24 140.576 149.24 139.621ZM145.604 137.902C145.604 139.048 144.648 139.812 143.308 139.812C142.352 139.812 141.778 139.239 141.778 138.666C141.778 138.093 142.16 137.711 143.117 137.52C144.074 137.329 144.839 137.329 145.604 136.947V137.902ZM151.153 127.588H154.98V141.722H151.153V127.588ZM170.86 127.588H163.398V141.722H167.608V136.756H171.052C174.687 136.756 176.6 135.037 176.6 132.172C176.6 129.116 174.496 127.588 170.86 127.588ZM170.286 133.7H167.608V130.262H170.286C171.817 130.262 172.582 130.835 172.582 131.981C172.391 133.318 171.817 133.7 170.286 133.7ZM181.575 133.127V131.217H177.748V141.531H181.575V138.093C181.575 136.756 181.575 135.801 181.958 135.228C182.34 134.655 183.106 134.273 184.445 134.273H185.402V130.835C183.68 131.026 182.532 131.599 181.575 133.127ZM192.29 130.835C188.272 130.835 185.976 132.936 185.976 136.374C185.976 139.812 188.272 141.913 192.29 141.913C196.308 141.913 198.604 139.812 198.604 136.374C198.604 132.936 196.308 130.835 192.29 130.835ZM192.29 139.43C190.759 139.43 189.994 138.475 189.994 136.565C189.994 134.655 190.759 133.7 192.29 133.7C193.82 133.7 194.586 134.655 194.586 136.565C194.586 138.284 193.82 139.43 192.29 139.43ZM207.979 132.554C207.214 131.408 205.874 131.026 204.344 131.026C201.474 131.026 199.369 133.127 199.369 136.565C199.369 139.812 201.474 141.913 204.344 141.913C205.874 141.913 207.022 141.34 207.788 140.194V141.531H211.614V127.397H207.788V132.554H207.979ZM205.874 139.239C204.344 139.239 203.578 138.284 203.578 136.374C203.578 134.655 204.535 133.7 205.874 133.7C207.405 133.7 208.17 134.655 208.17 136.374C208.17 138.284 207.405 139.239 205.874 139.239ZM221.181 136.756C221.181 138.475 220.607 139.239 219.268 139.239C217.928 139.239 217.546 138.475 217.546 136.947V131.217H213.719V138.284C213.719 140.576 215.058 141.722 217.737 141.722C219.268 141.722 220.416 141.149 221.372 140.003V141.34H225.199V131.026H221.372V136.756H221.181ZM232.47 133.509C233.426 133.509 234 134.082 234.192 135.037H238.21C238.018 132.554 235.914 131.026 232.47 131.026C228.643 131.026 226.347 133.127 226.347 136.756C226.347 140.003 228.643 142.104 232.278 142.104C235.531 142.104 237.827 140.576 238.21 137.902H234.383C234.192 138.857 233.618 139.43 232.47 139.43C231.13 139.43 230.365 138.475 230.365 136.565C230.365 134.464 231.13 133.509 232.47 133.509ZM243.758 128.352H239.74V131.217H238.21V133.318H239.74V137.329C239.74 140.576 240.123 141.913 243.184 141.913C243.95 141.913 244.715 141.913 245.48 141.722V139.43H244.906C243.758 139.43 243.376 139.048 243.376 137.711V133.127H245.289V131.026H243.376V128.352H243.758ZM256.96 136.183C256.386 135.801 255.238 135.61 253.516 135.037C251.794 134.655 250.838 134.464 250.838 133.891C250.838 133.318 251.412 132.936 252.368 132.936C253.325 132.936 253.899 133.318 254.09 133.891H257.917C257.726 131.79 255.812 130.835 252.368 130.835C249.116 130.835 247.202 132.172 247.202 134.273C247.202 135.992 248.35 136.565 251.029 137.329C253.134 137.902 254.473 137.902 254.473 138.666C254.473 139.239 253.708 139.621 252.751 139.621C251.412 139.621 250.838 139.239 250.646 138.284H246.82C247.011 140.385 249.116 141.722 252.751 141.722C256.386 141.722 258.491 140.385 258.491 138.093C258.3 137.329 257.917 136.756 256.96 136.183Z" fill="white"/>
<path d="M259.639 52.7161H259.448C206.449 38.9641 143.691 39.3461 143.5 39.3461C143.5 39.3461 80.3599 38.7731 27.3606 52.7161V100.275H27.5519C80.5513 114.027 143.309 113.645 143.5 113.645C143.5 113.645 206.64 114.218 259.639 100.275V52.7161Z" fill="#E21936"/>
<path fill-rule="evenodd" clip-rule="evenodd" d="M259.065 108.297C257.917 107.151 256.578 106.578 255.047 106.578C253.517 106.578 252.177 107.151 251.221 108.106C250.073 109.252 249.499 110.589 249.499 112.117C249.499 113.645 250.073 114.982 251.029 115.937C252.177 117.083 253.517 117.656 255.047 117.656C256.578 117.656 257.917 117.083 259.065 116.128C260.213 115.173 260.787 113.645 260.787 112.117C260.596 110.589 260.022 109.252 259.065 108.297ZM258.109 115.364C257.152 116.128 256.004 116.701 254.856 116.701C253.708 116.701 252.56 116.128 251.603 115.364C250.838 114.409 250.264 113.454 250.264 112.117C250.264 110.971 250.647 109.825 251.603 108.87C252.369 108.106 253.517 107.533 254.856 107.533C256.195 107.533 257.152 107.915 258.109 108.87C258.874 109.634 259.448 110.78 259.448 112.117C259.448 113.263 259.065 114.409 258.109 115.364Z" fill="white"/>
<path fill-rule="evenodd" clip-rule="evenodd" d="M257.726 110.78C257.726 109.634 256.769 109.061 255.047 109.061H252.56V115.173H254.282V112.69H254.856L256.004 115.173H257.917L256.578 112.499C257.152 112.117 257.726 111.544 257.726 110.78ZM254.856 111.544H254.282V109.825H254.856C255.621 109.825 256.004 110.016 256.004 110.589C256.004 111.353 255.621 111.544 254.856 111.544ZM82.2733 72.3889H76.5333V79.0739C76.5333 82.3209 76.1506 84.2309 73.6633 84.2309C70.9846 84.2309 70.602 82.5119 70.602 80.2199V72.5799H64.862V81.1749C64.862 85.1859 65.8186 88.2419 71.3673 88.2419C74.046 88.2419 75.194 87.4779 76.5333 84.9949C76.5333 85.9499 76.5333 86.7139 76.7246 87.6689H82.2733C82.2733 86.7139 82.082 85.5679 82.082 84.6129V72.3889H82.2733ZM157.276 75.6359C157.276 74.4899 157.276 73.5349 157.085 72.3889H151.536C151.536 73.3439 151.727 74.4899 151.727 75.4449V87.4779H157.467V81.7479C157.467 78.6919 159.572 76.9729 162.633 76.9729C163.207 76.9729 163.781 76.9729 164.164 77.1639V72.1979C160.146 72.0069 158.615 72.5799 157.276 75.6359ZM188.463 71.8159C185.402 71.8159 183.297 73.1529 182.149 75.2539C181.193 72.9619 178.897 71.8159 176.792 71.8159C173.922 71.8159 172.583 73.5349 172.009 75.0629V72.3889H166.269C166.269 73.3439 166.46 74.4899 166.46 75.4449V87.4779H172.2V80.2199C172.2 77.5459 172.965 75.6359 175.07 75.6359C177.749 75.6359 178.131 77.5459 178.131 79.6469V87.2869H183.871V79.2649C183.871 76.9729 184.637 75.4449 186.55 75.4449C188.846 75.4449 189.803 77.1639 189.803 79.2649V87.0959H195.543V78.5009C195.543 72.9619 191.716 71.8159 188.463 71.8159ZM56.0606 76.5909C59.3133 76.0179 61.6093 74.1079 61.6093 71.2429C61.6093 67.4229 58.548 65.5129 53.382 65.5129H40.9453V87.0959H47.2593V78.8829H50.7033C53.1906 78.8829 54.1473 79.4559 54.53 80.4109C55.104 81.9389 55.104 84.9949 55.678 87.0959H62.3746C61.418 84.8039 61.418 80.2199 60.27 78.3099C59.696 77.1639 57.974 76.7819 56.0606 76.5909ZM51.4686 74.8719H47.2593V69.9059H50.7033C53.7646 69.9059 55.4866 70.2879 55.4866 72.3889C55.2953 74.1079 54.3386 74.8719 51.4686 74.8719ZM97.7713 71.8159C94.5186 71.8159 92.414 73.1529 91.266 74.2989V65.7039H85.526V87.2869H91.0746V84.8039C92.414 86.3319 94.136 87.8599 97.7713 87.8599C102.555 87.8599 105.425 84.8039 105.425 79.6469C105.616 74.6809 102.746 71.8159 97.7713 71.8159ZM95.858 84.4219C93.1793 84.4219 91.4573 82.5119 91.4573 79.8379C91.4573 76.9729 93.3706 75.0629 95.858 75.0629C98.3453 75.0629 100.259 76.9729 100.259 79.6469C100.259 82.1299 98.728 84.4219 95.858 84.4219ZM139.482 71.8159C134.316 71.8159 129.724 74.2989 129.724 80.2199C129.724 86.1409 134.316 88.0509 139.482 88.0509C143.691 88.0509 147.709 87.6689 149.049 82.8939H142.926C142.543 83.8489 142.161 84.9949 139.673 84.9949C137.186 84.9949 135.847 83.8489 135.655 81.3659H149.431C149.24 75.4449 146.753 71.8159 139.482 71.8159ZM135.655 78.1189C135.847 76.5909 136.612 74.8719 139.291 74.8719C141.395 74.8719 142.926 75.6359 142.926 78.1189H135.655ZM216.398 78.3099C216.398 73.1529 212.954 71.8159 207.214 71.8159C203.196 71.8159 198.795 72.9619 198.604 76.7819H204.535C204.535 75.6359 205.301 74.8719 207.405 74.8719C209.701 74.8719 210.849 75.4449 210.849 77.9279H206.64C200.9 77.9279 197.647 79.4559 197.647 83.0849C197.647 86.3319 200.135 88.0509 204.535 88.0509C207.023 88.0509 209.701 87.2869 211.041 84.9949C211.041 85.7589 211.041 86.9049 211.232 87.4779H216.781C216.781 86.3319 216.589 85.1859 216.589 84.0399V78.3099H216.398ZM206.066 84.6129C204.535 84.6129 203.579 84.0399 203.579 83.0849C203.579 81.7479 204.344 80.7929 208.362 80.7929H210.849C210.658 82.3209 209.893 84.6129 206.066 84.6129ZM218.694 72.3889H224.434V87.4779H218.694V72.3889ZM218.311 65.7039H224.625V69.9059H218.311V65.7039ZM120.349 71.8159C117.096 71.8159 114.991 73.1529 113.843 74.2989V65.7039H108.103V87.2869H113.652V84.8039C115.183 86.5229 116.713 87.8599 120.54 87.8599C125.323 87.8599 128.193 84.8039 128.193 79.6469C128.193 74.6809 125.515 71.8159 120.349 71.8159ZM118.435 84.4219C115.757 84.4219 114.035 82.5119 114.035 79.8379C114.035 76.9729 115.948 75.0629 118.435 75.0629C120.923 75.0629 122.836 76.9729 122.836 79.6469C122.836 82.1299 121.497 84.4219 118.435 84.4219ZM240.697 74.2989C239.549 73.1529 237.636 71.8159 234.192 71.8159C229.217 71.8159 226.347 74.8719 226.347 79.8379C226.347 84.9949 229.217 88.0509 234.001 88.0509C237.827 88.0509 239.358 86.5229 240.697 84.9949V87.4779H246.246V65.7039H240.506V74.2989H240.697ZM236.297 84.4219C233.235 84.4219 231.896 82.1299 231.896 79.6469C231.896 76.9729 233.618 75.0629 236.297 75.0629C238.975 75.0629 240.697 76.9729 240.697 79.8379C240.697 82.7029 238.975 84.4219 236.297 84.4219Z" fill="white"/>
</svg>
