<svg width="400" height="113.886" xmlns="http://www.w3.org/2000/svg">
  <g fill-rule="evenodd">
    <path d="M287.069 78.333c0 1.696.025 2.39.055 1.542.03-.848.03-2.235 0-3.083-.03-.848-.055-.155-.055 1.541m84.332-.416c0 1.466.026 2.044.056 1.283.031-.76.031-1.96 0-2.666s-.056-.084-.056 1.383m-.068 7.7c-.046 1.76-.025 3.142.046 3.071.071-.071.108-1.511.083-3.2l-.046-3.071-.083 3.2m-84.266.3c.001 1.466.026 2.044.057 1.283.031-.76.031-1.96 0-2.666s-.057-.084-.057 1.383"/>
    <path d="M284.333 81.083v7.75h1.153c1.718 0 1.604.208 1.548-2.835l-.05-2.665h1.821c1.415 0 1.867-.055 2.028-.25.114-.137.461-.25.771-.25.309 0 .563-.075.563-.166 0-.092.116-.167.258-.167.141 0 .629-.371 1.083-.825.454-.454.825-.942.825-1.084 0-.142.067-.258.149-.258.082 0 .16-.937.174-2.083.017-1.353-.035-2.083-.149-2.083-.095 0-.174-.153-.174-.339 0-.186-.112-.382-.25-.434-.137-.053-.25-.187-.25-.298 0-.194-.735-.929-.93-.929-.051 0-.206-.113-.343-.25-.138-.138-.433-.25-.655-.25-.223 0-.405-.075-.405-.167 0-.106-1.306-.167-3.583-.167h-3.584v7.75m16.111-7.639c-.061.062-.111.32-.111.574 0 .254-.075.509-.166.565-.092.057-.167.291-.167.52 0 .229-.071.373-.158.319-.087-.054-.208.167-.269.492-.061.324-.177.631-.259.681-.081.05-.147.304-.147.564 0 .274-.109.514-.261.572-.143.055-.222.162-.175.238.047.076-.023.348-.156.604s-.242.602-.242.77c0 .167-.075.35-.166.407-.092.057-.167.251-.167.432s-.113.372-.25.424c-.138.053-.25.277-.25.497 0 .221-.066.532-.146.691-.354.7-.687 1.57-.687 1.795 0 .134-.059.244-.131.244-.071 0-.228.357-.348.792-.267.969-.281 1.004-.678 1.625-.175.275-.324.748-.331 1.052-.007.303-.079.51-.16.46-.158-.098-.373.736-.244.945.043.07.655.126 1.36.125 1.385-.001 1.698-.238 1.698-1.282 0-.211.097-.383.215-.383.122 0 .232-.233.255-.542.023-.298.114-.567.202-.597.089-.031.162-.222.162-.425 0-.718.233-.77 3.45-.77 2.612 0 3.05.037 3.05.253 0 .138.07.382.156.541.086.159.201.499.255.755.054.256.171.42.26.365.091-.056.162.123.162.41 0 .28.07.51.156.51s.18.243.208.541l.053.542 1.458.048c.802.027 1.458-.002 1.458-.064 0-.322-.405-1.401-.526-1.401-.077 0-.14-.183-.14-.406 0-.224-.075-.454-.167-.51-.092-.057-.167-.289-.167-.515 0-.227-.112-.456-.25-.508-.137-.053-.25-.271-.25-.485 0-.214-.075-.436-.166-.492-.092-.057-.167-.271-.167-.477 0-.205-.071-.445-.157-.532-.086-.087-.197-.382-.246-.657-.049-.274-.166-.524-.26-.555-.094-.032-.17-.238-.17-.46 0-.221-.075-.403-.167-.403-.092 0-.167-.227-.167-.505 0-.295-.104-.545-.25-.601-.137-.053-.25-.275-.25-.495 0-.219-.075-.399-.166-.399-.092 0-.167-.179-.167-.397 0-.219-.112-.613-.249-.875-.137-.263-.249-.609-.25-.769-.001-.161-.076-.292-.168-.292-.091 0-.166-.187-.166-.417 0-.229-.075-.416-.167-.416-.092 0-.167-.179-.167-.397 0-.218-.112-.489-.25-.603-.137-.114-.25-.386-.25-.604 0-.218-.075-.396-.166-.396-.092 0-.167-.188-.167-.417 0-.412-2.681-.68-3.056-.306m11.429 7.598l.044 7.708 1.375.048 1.375.049V82.5l.541.005c.512.005 1.125.312 1.125.562 0 .063.188.316.417.564.229.247.417.509.417.583 0 .074.187.322.416.551.23.229.417.509.417.622 0 .114.15.314.333.446.184.132.334.34.334.462 0 .121.187.395.416.607.23.212.417.509.417.659 0 .15.056.273.125.273s.275.225.458.499c.328.491.359.499 1.782.5 1.484 0 1.948-.192 1.41-.585-.151-.111-.275-.287-.275-.391 0-.105-.075-.19-.167-.19-.091 0-.166-.102-.166-.226 0-.124-.188-.428-.417-.675-.229-.248-.417-.531-.417-.63 0-.1-.187-.355-.416-.567-.229-.213-.417-.465-.417-.561a.172.172 0 0 0-.167-.175c-.091 0-.166-.122-.166-.272 0-.15-.183-.431-.406-.625-.222-.194-.429-.46-.458-.591-.029-.13-.303-.487-.609-.791l-.556-.554h.431c.237 0 .431-.075.431-.167 0-.091.134-.166.299-.166.552 0 2.034-1.825 2.034-2.505 0-.166.092-.331.204-.369.289-.096.309-1.635.026-2.038-.126-.181-.23-.542-.23-.803 0-.654-1.689-2.285-2.367-2.285-.256 0-.466-.075-.466-.167 0-.106-1.306-.167-3.585-.167h-3.585l.043 7.709m11.738-7.598c-.24.241-.117 1.685.153 1.788.145.056 1.232.101 2.416.101h2.153v13.5H331v-13.5h4.833v-2h-6.055c-3.331 0-6.106.05-6.167.111m15.167 0c-.061.062-.111 3.549-.111 7.75v7.639H341l.013-5.458c.007-3.002.056-5.35.108-5.218.052.132.271.417.487.633.216.215.392.505.392.644s.075.206.167.149c.091-.056.166-.02.166.081s.188.386.417.633c.229.247.417.513.417.59 0 .078.262.396.583.707.321.312.583.637.583.723 0 .085.07.18.154.211.085.03.179.166.209.302.03.136.335.533.679.882.344.349.625.716.625.817 0 .1.137.303.305.451.168.149.644.738 1.058 1.31.413.571.801.99.861.93.06-.06.109.016.109.169 0 .153.075.278.167.278.092 0 .167.138.167.307 0 .593.534.859 1.723.859h1.113l-.043-7.708-.043-7.708h-2.334l-.044 5.125c-.027 3.225-.105 5.125-.208 5.125a.166.166 0 0 1-.164-.167c0-.326-.065-.424-.696-1.048-.351-.347-.638-.746-.638-.885s-.075-.207-.166-.15c-.092.056-.167.02-.167-.081s-.18-.378-.401-.616a4.911 4.911 0 0 1-.625-.863c-.285-.548-.751-1.025-.877-.899-.053.054-.097-.021-.097-.166 0-.145-.069-.289-.154-.32-.085-.03-.179-.166-.209-.302-.029-.136-.335-.533-.679-.882-.343-.349-.625-.727-.625-.841 0-.114-.15-.315-.333-.447-.183-.132-.333-.336-.333-.453 0-.118-.069-.214-.153-.214-.085 0-.307-.243-.494-.541-.807-1.284-1.062-1.459-2.137-1.459-.547 0-1.044.05-1.105.111m16.323.153c-.132.344-.132 14.628 0 14.973.089.232.688.263 5.008.263h4.908l-.05-.958c-.032-.614-.125-.966-.259-.979-.114-.012-1.708-.03-3.541-.042l-3.334-.021V82h6.026l-.045-.792c-.059-1.056.001-1.036-3.189-1.039l-2.792-.002V75.34l3.542-.045 3.542-.045.05-.958.05-.959h-4.908c-4.32 0-4.919.032-5.008.264m13.566 7.493v7.757l1.291-.048 1.292-.049.045-3.125.046-3.125h.592c.656 0 1.9 1.114 1.9 1.701 0 .164.081.299.179.299.27 0 .655.441.655.75s.384.75.654.75c.099 0 .179.188.179.417 0 .229.059.416.131.416.072 0 .274.244.45.542.175.298.454.687.619.865.165.177.3.384.3.458 0 .074.677.135 1.505.135 1.724 0 1.968-.183 1.26-.948-.238-.256-.432-.559-.432-.675 0-.115-.075-.21-.166-.21-.092 0-.167-.112-.167-.25s-.059-.25-.131-.25c-.072 0-.253-.206-.404-.458a5.44 5.44 0 0 0-.586-.792c-.172-.183-.459-.596-.637-.917-.179-.321-.367-.621-.417-.666-.051-.046-.313-.384-.583-.75-.269-.367-.566-.722-.658-.789-.092-.068.001-.124.208-.125.206-.002.375-.078.375-.17 0-.091.15-.166.333-.166.326 0 1.667-1.191 1.667-1.48 0-.08.112-.24.25-.354.137-.114.25-.419.25-.677 0-.258.075-.516.166-.573.092-.056.167-.511.167-1.01 0-.498-.075-.906-.167-.906-.091 0-.166-.177-.166-.392 0-.798-1.721-2.608-2.479-2.608-.184 0-.381-.075-.438-.167-.063-.103-1.446-.167-3.593-.167h-3.49v7.757m-203.798-1.901c.036 4.244.096 5.55.256 5.603.115.038.208.25.208.472 0 .221.075.403.167.403.092 0 .167.174.167.388 0 .244.155.472.416.612.23.122.417.29.417.373 0 .208.438.627.655.627.098 0 .178.075.178.166 0 .092.142.167.316.167.173 0 .359.112.411.25.053.138.249.25.435.25s.338.075.338.167c0 .103.941.166 2.49.166 1.481 0 2.532-.067 2.594-.166.056-.092.251-.167.431-.167.181 0 .372-.112.425-.25.053-.138.239-.25.414-.25.379 0 1.98-1.56 1.98-1.931 0-.143.112-.372.25-.509.137-.138.25-.418.25-.622 0-.204.076-.447.169-.54.109-.109.153-2.029.125-5.409l-.044-5.239h-3.334l-.044 4.955-.044 4.954-.414.611c-.228.335-.414.712-.414.837 0 .124-.15.226-.334.226-.183 0-.333.075-.333.167 0 .092-.19.167-.422.167-.232 0-.465.112-.518.25-.059.154-.312.25-.661.25-.392 0-.566-.077-.566-.25 0-.154-.156-.25-.406-.25-.224 0-.454-.075-.51-.167-.057-.092-.249-.167-.427-.167s-.323-.112-.323-.25c0-.137-.075-.25-.167-.25-.092 0-.167-.143-.167-.319 0-.176-.072-.345-.161-.375-.097-.034-.179-2.095-.208-5.222l-.047-5.167-1.798-.047-1.799-.048.049 5.534m16.173-5.412c-.163.066-.209 1.737-.209 7.57v7.486H184v-4.77c0-4.222.029-4.747.25-4.563.137.114.25.348.25.52 0 .173.075.313.167.313.091 0 .166.116.166.257 0 .241.107.409.625.987.115.128.209.301.209.385 0 .231.499 1.184.677 1.295.086.053.156.242.156.42 0 .177.075.323.167.323.091 0 .166.188.166.417 0 .229.068.416.15.416.197 0 .857 1.271.728 1.4-.055.055-.012.1.095.1s.194.113.194.25c0 .138.104.25.232.25s.27.099.317.22c.129.338 1.784.374 1.784.039 0-.142.081-.259.179-.259.224 0 .655-.421.655-.641 0-.09.056-.189.125-.22.181-.08.708-1.124.708-1.402 0-.13.075-.237.167-.237.091 0 .166-.142.166-.315 0-.174.113-.359.25-.412.138-.052.25-.248.25-.434s.075-.339.167-.339c.092 0 .167-.155.167-.345 0-.19.093-.45.208-.577.532-.594.625-.753.625-1.071 0-.187.075-.34.167-.34.091 0 .166-.103.166-.23 0-.126.113-.323.25-.437.222-.183.25.323.25 4.397v4.603h3.17l-.043-7.541-.043-7.542-1.709-.047c-1.391-.039-1.708-.004-1.708.19 0 .131-.113.281-.25.334-.138.053-.25.248-.25.434 0 .187-.075.339-.167.339-.091 0-.166.116-.166.257 0 .241-.107.409-.625.987-.115.128-.209.35-.209.494 0 .144-.075.262-.166.262-.092 0-.167.188-.167.417 0 .266-.094.416-.26.416-.143 0-.217.069-.165.154.052.084-.018.266-.157.404a.979.979 0 0 0-.251.597c0 .19-.07.345-.156.345-.085 0-.207.163-.27.363a2.244 2.244 0 0 1-.428.698c-.172.184-.313.513-.313.731 0 .217-.067.353-.149.303-.082-.051-.196.095-.253.323-.057.229-.178.416-.268.416-.09 0-.163.159-.163.353 0 .296-.041.32-.25.147a.772.772 0 0 1-.25-.521c0-.172-.067-.313-.148-.313-.081 0-.196-.131-.257-.291-.206-.548-.508-1.042-.635-1.042-.07 0-.127-.146-.127-.323 0-.178-.075-.37-.167-.427-.091-.057-.166-.249-.166-.427 0-.177-.076-.323-.168-.323-.092 0-.329-.372-.528-.826-.198-.454-.423-.787-.499-.74-.076.047-.139-.032-.139-.176 0-.259-.319-.929-.519-1.091-.056-.046-.155-.252-.219-.459-.065-.206-.187-.375-.273-.375-.085 0-.155-.115-.155-.256 0-.14-.121-.44-.27-.666-.148-.226-.204-.416-.125-.423.08-.006-.005-.076-.189-.155-.355-.152-3.191-.197-3.541-.056m20.31.117c-.136.164-.177 2.28-.145 7.542l.043 7.314 4.229.045c2.34.024 4.313-.023 4.417-.106.103-.083.432-.203.73-.267.299-.064.501-.185.449-.269-.052-.084.022-.153.165-.153.143 0 .26-.075.26-.167 0-.091.112-.166.25-.166.137 0 .25-.061.25-.136 0-.074.135-.28.301-.458.771-.829 1.271-3.803.699-4.156-.092-.057-.167-.249-.167-.427s-.099-.323-.222-.323c-.122 0-.322-.188-.444-.417-.137-.255-.369-.417-.598-.417-.6 0-.553-.348.13-.965.349-.315.634-.715.634-.887 0-.173.094-.296.209-.273.154.031.208-.344.208-1.444 0-1.041-.062-1.507-.208-1.556-.115-.038-.209-.218-.209-.399 0-.535-1.481-1.642-2.195-1.642-.178 0-.283-.067-.233-.148.262-.424-8.203-.547-8.553-.125m15.058-.019c-.044.115-.061 3.508-.037 7.542l.044 7.333 1.541.048 1.542.048v-6.013h.571c.603 0 1.596.786 1.596 1.263 0 .131.075.237.166.237.092 0 .167.113.167.25 0 .138.075.25.167.25.091 0 .166.095.166.21 0 .116.188.413.417.66.229.247.417.524.417.614 0 .091.187.368.416.615.23.248.418.533.42.634.001.101.217.428.48.726l.478.541h1.775c1.956 0 2.259-.161 1.612-.856-.327-.35-.415-.554-.368-.852.011-.069-.093-.125-.23-.125a.25.25 0 0 1-.25-.25c0-.138-.075-.25-.167-.25-.091 0-.166-.095-.166-.21 0-.116-.188-.412-.417-.659-.229-.248-.419-.547-.422-.665-.007-.298-.408-.799-.638-.799-.105 0-.19-.14-.19-.31 0-.171-.263-.589-.583-.929-.692-.734-.727-.928-.167-.928.229 0 .417-.075.417-.167 0-.091.126-.166.279-.166.326 0 1.387-1.101 1.387-1.438 0-.126.075-.229.167-.229.101 0 .167-.75.167-1.917 0-1.074-.069-1.916-.156-1.916-.085 0-.208-.169-.272-.375-.135-.436-1.031-1.292-1.352-1.292-.121 0-.22-.075-.22-.167 0-.091-.255-.166-.566-.166-.349 0-.602-.096-.661-.25-.13-.339-7.401-.379-7.53-.042m18.423.191c0 .226-.112.523-.25.66-.137.138-.25.443-.25.679 0 .235-.075.428-.166.428-.092 0-.167.183-.167.407 0 .224-.075.453-.167.51-.091.057-.166.288-.166.515 0 .227-.113.455-.25.508-.138.053-.25.275-.25.495 0 .219-.075.399-.167.399-.092 0-.167.18-.167.399 0 .22-.186.726-.414 1.125-.228.399-.416.894-.417 1.101-.001.206-.077.375-.169.375-.091 0-.166.225-.166.5s-.07.5-.156.5c-.085 0-.202.168-.26.375a7.935 7.935 0 0 1-.242.708l-.443 1.083c-.169.413-.354.788-.412.834-.099.079-.153.26-.42 1.416-.064.275-.218.56-.342.634-.124.073-.225.354-.225.625v.491h1.732c1.708 0 1.733-.005 1.836-.416.058-.229.178-.417.268-.417.09 0 .164-.187.164-.417 0-.229.075-.416.166-.416.092 0 .167-.255.167-.566 0-.349.096-.602.25-.661a.412.412 0 0 0 .25-.351c0-.22.4-.256 2.833-.256 2.723 0 2.834.013 2.834.334 0 .183.075.333.166.333.092 0 .167.221.167.49 0 .27.075.537.167.593.091.057.166.286.166.51 0 .242.097.407.239.407.131 0 .262.169.291.375.051.357.134.377 1.762.422l1.708.048v-.589c0-.324-.075-.589-.166-.589-.092 0-.167-.179-.167-.397 0-.218-.113-.489-.25-.603-.138-.114-.25-.334-.25-.487 0-.154-.062-.351-.137-.438-.076-.087-.279-.59-.451-1.117-.173-.527-.374-.958-.447-.958-.072 0-.132-.176-.132-.391 0-.421-.421-1.374-.677-1.533-.086-.053-.156-.312-.156-.576 0-.265-.075-.527-.167-.584-.091-.056-.166-.248-.166-.426s-.075-.324-.167-.324c-.092 0-.167-.178-.167-.396 0-.218-.112-.49-.25-.604-.137-.114-.25-.381-.25-.594 0-.212-.075-.432-.166-.489-.092-.057-.167-.277-.167-.489 0-.213-.113-.48-.25-.594-.138-.114-.25-.386-.25-.604 0-.218-.075-.396-.167-.396-.091 0-.166-.151-.166-.336 0-.185-.087-.503-.193-.708a21.592 21.592 0 0 1-.309-.623c-.092-.196-.52-.26-1.974-.297l-1.858-.047v.41m15.561-.149c-.06.154-.313.25-.662.25-.311 0-.565.075-.565.166 0 .092-.107.167-.237.167-.297 0-1.261.541-1.262.708-.001.069-.101.125-.223.125s-.322.188-.445.417c-.123.229-.323.417-.445.417s-.222.112-.222.25c0 .137-.075.25-.166.25-.092 0-.167.15-.167.333 0 .183-.067.333-.149.333-.081 0-.195.188-.253.417-.057.229-.178.417-.268.417-.09 0-.163.295-.163.656 0 .362-.075.704-.167.76-.094.058-.167.863-.167 1.844 0 1.049.067 1.74.167 1.74.092 0 .167.3.167.666 0 .367.056.667.125.668.068 0 .263.337.433.75.169.412.376.749.458.749.083 0 .15.112.15.25s.078.25.173.25c.095 0 .501.337.902.75.405.417.884.75 1.077.75.199 0 .348.108.348.25 0 .175.176.25.584.25.32 0 .583.075.583.167 0 .103.941.166 2.49.166 1.48 0 2.532-.067 2.593-.166.057-.092.268-.167.47-.167.202 0 .569-.187.816-.417.248-.229.568-.416.712-.416a.418.418 0 0 0 .359-.25c.052-.138.205-.25.338-.25.133 0 .195-.075.139-.167-.057-.092.014-.167.156-.167.401 0 .31-.384-.235-.994-.272-.305-.46-.61-.417-.679.229-.371-1.449-.445-1.754-.077a.772.772 0 0 1-.521.25c-.172 0-.313.071-.313.157 0 .086-.281.18-.625.208-.391.033-.609.13-.583.26.064.322-1.561.282-1.685-.041-.056-.146-.306-.25-.6-.25-.979 0-2.336-1.516-2.604-2.907-.036-.188-.142-.367-.234-.398-.237-.079-.211-1.92.03-2.16a.955.955 0 0 0 .235-.448c.059-.404.471-1.254.607-1.254.069 0 .13-.094.135-.208.035-.791 4.158-2.437 4.158-1.661 0 .072.242.15.538.172.296.023.6.151.675.286.075.134.283.244.462.244.178 0 .325.075.325.167 0 .377 1.637.189 1.761-.202.064-.203.294-.508.511-.679.886-.697-.602-2.452-2.079-2.452-.209 0-.36-.105-.36-.25 0-.211-.389-.25-2.505-.25-2.073 0-2.522.043-2.601.25m15.166 0c-.059.154-.312.25-.661.25-.311 0-.566.075-.566.166 0 .092-.14.167-.313.167a.77.77 0 0 0-.52.25c-.114.137-.311.25-.437.25s-.23.075-.23.167c0 .091-.112.166-.25.166-.137 0-.25.057-.25.125 0 .069-.227.388-.505.709-.508.588-.995 1.421-.995 1.704 0 .084-.112.265-.25.403-.137.137-.25.544-.25.905 0 .36-.064.654-.144.654-.079 0-.158.638-.175 1.417-.02.899.033 1.417.144 1.417.096 0 .175.328.175.729 0 .445.098.811.25.937.138.114.25.312.25.44 0 .243.3.834.584 1.15.091.102.354.423.583.713.229.29.51.528.625.529.115.001.208.114.208.252 0 .155.158.25.417.25.229 0 .417.075.417.166 0 .092.142.167.315.167.174 0 .359.112.412.25.06.157.315.25.684.25.324 0 .589.075.589.167 0 .103.944.166 2.5.166 1.555 0 2.5-.063 2.5-.166 0-.092.262-.167.583-.167.407 0 .583-.075.583-.25 0-.156.158-.25.417-.25.229 0 .417-.075.417-.167 0-.091.112-.166.25-.166.137 0 .25-.069.25-.153 0-.085.262-.316.583-.514.321-.198.583-.47.583-.605 0-.134.188-.431.417-.66.229-.229.417-.526.417-.659 0-.134.075-.243.166-.243.092 0 .167-.254.167-.565 0-.33.097-.603.232-.655.359-.137.381-4.143.025-4.499-.141-.141-.257-.487-.257-.769 0-.281-.067-.512-.149-.512-.081 0-.191-.17-.243-.378-.052-.208-.248-.542-.435-.743-.187-.201-.34-.432-.34-.515 0-.083-.197-.292-.439-.465a11.05 11.05 0 0 1-.922-.774c-.266-.252-.589-.458-.718-.458s-.281-.075-.337-.167c-.057-.091-.361-.166-.677-.166-.399 0-.573-.077-.573-.25 0-.211-.39-.25-2.506-.25-2.073 0-2.521.043-2.601.25m24.773 1.583c0 .092.188.167.417.167.245 0 .417.095.417.232 0 .128.112.275.25.328.137.053.25.211.25.351 0 .14.075.255.166.255.098 0 .167.558.167 1.34v1.34l-.694.66c-.381.363-.794.67-.916.681-.123.012-.298.04-.39.063a3.192 3.192 0 0 1-.343.062c-.097.012-.13.096-.074.188.066.106-.387.166-1.24.166H287v-6h1.667c1 0 1.666.067 1.666.167m27.25 0c.057.092.268.169.469.172.452.007 1.115.54 1.115.896 0 .146.075.265.166.265.092 0 .167.375.167.834 0 .458-.075.833-.167.833-.091 0-.166.188-.166.417 0 .229-.081.416-.179.416-.231 0-.655.424-.655.655 0 .098-.187.179-.416.179-.229 0-.417.075-.417.166 0 .098-.583.167-1.417.167h-1.416v-5.167h1.406c.774 0 1.454.075 1.51.167m57.132.042c.247.114.45.264.45.333.001.069.109.125.239.125.611 0 1.01 2.068.554 2.871-.334.589-1.077 1.296-1.362 1.296-.144 0-.263.075-.263.166 0 .099-.611.167-1.5.167h-1.5v-5.167h1.467c.823 0 1.664.092 1.915.209m-166.632.791c.057.092.23.168.385.168.381.002.699.741.699 1.623 0 .769-.542 1.543-1.081 1.543a.416.416 0 0 0-.359.25c-.075.194-.405.25-1.495.25h-1.399v-4h1.574c.869 0 1.619.074 1.676.166m14.42.041c.365.114.664.264.664.333 0 .07.112.126.25.126.155 0 .25.158.25.417 0 .229.075.417.166.417.092 0 .167.225.167.5s-.075.5-.167.5c-.091 0-.166.137-.166.305 0 .392-.895 1.195-1.332 1.195-.184 0-.335.075-.335.166 0 .097-.528.167-1.25.167h-1.25v-4.333h1.169c.643 0 1.468.093 1.834.207m46.33.293c0 .091.263.166.584.166.32 0 .583.07.583.156 0 .085.167.208.372.273.45.143 1.295 1.017 1.295 1.339 0 .128.06.232.133.232.073 0 .223.249.333.554.244.674.271 3.613.034 3.613-.092 0-.158.056-.147.125.067.428-.047 1.042-.194 1.042-.226 0-.993.766-.993.992 0 .096-.145.174-.323.174-.178 0-.37.075-.427.167-.056.092-.326.167-.598.167-.287 0-.536.105-.591.25-.067.174-.339.25-.894.25-.555 0-.827-.076-.894-.25-.053-.139-.301-.251-.559-.251-.274 0-.703-.205-1.047-.499-.321-.275-.64-.5-.708-.5-.069 0-.125-.113-.125-.25 0-.138-.075-.25-.167-.25-.092 0-.169-.132-.172-.292-.003-.16-.115-.437-.25-.615a1.378 1.378 0 0 1-.245-.709c0-.211-.075-.384-.166-.384-.092 0-.167-.417-.167-.927 0-.575.063-.887.167-.823.091.056.172.004.179-.115.051-.896.623-2.034 1.284-2.552.234-.183.542-.465.685-.625.147-.166.495-.292.805-.292.301 0 .547-.075.547-.166 0-.092.375-.167.833-.167.458 0 .833.075.833.167m33.346.666c.085 0 .154.183.154.407 0 .224.075.453.167.51.092.057.167.278.167.492 0 .214.112.432.25.485.157.06.25.315.25.684 0 .324.075.589.166.589.092 0 .167.145.167.321a.94.94 0 0 0 .25.572c.137.137.25.443.25.678 0 .236.075.429.167.429.091 0 .166.075.166.167 0 .103-.861.166-2.25.166h-2.25v-.399c0-.219.113-.442.25-.494.146-.056.25-.306.25-.601 0-.278.075-.506.167-.506.092 0 .167-.187.167-.416 0-.229.075-.417.166-.417.092 0 .167-.131.168-.292.001-.16.113-.506.25-.769.137-.262.249-.656.249-.875 0-.218.075-.397.167-.397.091 0 .175-.207.186-.459.012-.282.048-.346.095-.166.042.16.146.291.231.291m-64.936 1.803c.065.293.186.491.271.439.084-.052.153.135.153.415 0 .281.075.51.166.51.092 0 .167.256.167.569 0 .314.066.595.146.625.081.031.199.3.264.598l.116.541h-3.459l.068-.585c.038-.321.135-.626.217-.676.081-.05.148-.304.148-.564 0-.266.109-.514.25-.568.137-.053.25-.244.25-.425s.075-.375.167-.432c.091-.056.166-.308.166-.56 0-1.029.678-.945.91.113M208.5 82.667c0 .091.112.166.25.166.779 0 1.382 2.332.673 2.604-.134.052-.289.237-.345.412-.062.198-.253.318-.506.318-.223 0-.405.075-.405.166 0 .1-.667.167-1.667.167h-1.667v-4h1.834c1.111 0 1.833.066 1.833.167" fill="#565656"/>
    <path d="M26.314 34.501c-.44.257-.7 1.187-1.306 4.666-.104.595-.261 1.458-.35 1.916-1.707 8.871-1.745 23.817-.075 29.334.111.366.298 1.004.416 1.416 1.641 5.757 5.982 10.093 11.834 11.82l1.5.444c7.469 2.224 24.607 2.348 34.5.251 6.658-1.411 11.551-5.267 13.664-10.765.071-.183.222-.558.337-.833.115-.275.268-.725.34-1l.374-1.417c1.105-4.159 1.59-14.293.985-20.583-.445-4.626-1.041-8.81-1.732-12.167a665.53 665.53 0 0 1-.427-2.083c-.211-1.057-.829-1.302-2.531-1.005l-2.373.417c-.796.14-1.636.255-1.867.255-.474 0-2.267.441-2.42.595-.151.153-.062 2.077.127 2.738.229.8.849 5.076 1.184 8.167 1.104 10.18.536 18.739-1.525 23-1.396 2.887-4.225 4.846-7.969 5.518-2.255.405-3.13.504-6.5.732-8.548.578-17.662.024-21.5-1.307-3.338-1.157-5.892-3.799-6.703-6.933-.239-.925-.739-3.468-.944-4.805-.232-1.509-.25-12.219-.023-13.907.089-.668.278-2.228.42-3.465.356-3.107.851-6.324 1.273-8.266.273-1.256-.017-1.622-1.483-1.875-5.466-.944-6.806-1.103-7.226-.858" fill="#fff"/>
    <path d="M174.39 40.917c.001.733.03 1.012.066.62a8.34 8.34 0 0 0-.002-1.333c-.035-.341-.064-.021-.064.713m72.735 14.873a15.48 15.48 0 0 0 1.75 0c.481-.034.088-.062-.875-.062s-1.356.028-.875.062" fill="#f50"/>
    <path d="M136.833 56.917v56.916h3.667V0h-3.667v56.917M51 .833c0 .101-.694.167-1.75.167-1.444 0-1.75.044-1.75.25 0 .2-.25.25-1.25.25-.687 0-1.25.068-1.25.151 0 .083-.394.193-.875.243-1.666.174-2.28.308-2.472.54-.107.128-.485.233-.84.233-.356 0-.646.075-.646.166 0 .092-.257.167-.572.167-.314 0-.684.113-.821.25-.138.138-.481.25-.762.25-.282 0-.512.075-.512.167 0 .091-.187.166-.417.166-.229 0-.416.075-.416.167 0 .092-.265.167-.589.167-.369 0-.624.093-.684.25-.055.142-.304.25-.578.25-.266 0-.483.075-.483.166 0 .092-.187.167-.416.167-.26 0-.417.094-.417.25s-.157.25-.417.25c-.229 0-.416.075-.416.167 0 .091-.188.166-.417.166-.229 0-.417.075-.417.167 0 .092-.187.167-.416.167-.26 0-.417.094-.417.25 0 .155-.157.25-.417.25-.229 0-.416.075-.416.166 0 .092-.101.167-.225.167-.334 0-1.275.501-1.275.679 0 .085-.188.154-.417.154-.229 0-.417.058-.417.129 0 .071-.262.27-.583.443-.321.173-.583.377-.583.455 0 .077-.139.14-.309.14-.17 0-.512.188-.759.417-.247.229-.531.416-.63.416-.099 0-.355.188-.567.417-.212.229-.502.417-.644.417-.142 0-.258.075-.258.166 0 .092-.08.167-.179.167-.098 0-.283.094-.41.208-.506.454-.735.625-.834.625-.057 0-.4.3-.763.667-.363.367-.714.667-.779.667-.065 0-.381.225-.702.5-.321.274-.639.499-.708.499-.069 0-.125.081-.125.179 0 .179-.405.655-.557.655-.305 0-3.776 3.448-3.776 3.751a.25.25 0 0 1-.25.249c-.138 0-.251.056-.251.125s-.45.607-1 1.197c-.55.589-.999 1.133-.999 1.208 0 .075-.298.435-.663.799-.364.364-.71.852-.768 1.083-.058.232-.21.421-.337.421-.128 0-.232.113-.232.25 0 .138-.075.25-.167.25-.092 0-.167.116-.167.258 0 .142-.187.432-.416.644-.229.213-.417.509-.417.659 0 .15-.075.273-.167.273-.091 0-.166.104-.166.232s-.113.275-.25.328c-.138.053-.252.192-.254.309-.002.118-.15.402-.33.631-.179.229-.327.54-.329.69a.432.432 0 0 1-.254.37.41.41 0 0 0-.25.351c0 .14-.075.255-.167.255-.091 0-.166.18-.166.399 0 .22-.113.442-.25.495-.138.053-.25.248-.25.434 0 .187-.075.339-.167.339-.092 0-.167.188-.167.417 0 .229-.075.416-.166.416-.092 0-.167.142-.167.316 0 .173-.113.359-.25.411-.138.053-.25.249-.25.435s-.075.338-.167.338c-.091 0-.166.183-.166.407 0 .224-.071.45-.156.503-.256.159-.678 1.112-.678 1.533 0 .215-.075.391-.166.391-.092 0-.167.254-.167.565 0 .349-.096.602-.25.662-.138.052-.25.243-.25.424s-.075.375-.167.432c-.091.057-.166.329-.166.605 0 .276-.113.615-.25.752-.138.138-.25.507-.25.822 0 .314-.075.571-.167.571-.092 0-.167.258-.167.573 0 .316-.075.62-.166.677-.092.057-.167.404-.167.772 0 .372-.111.779-.25.918-.155.155-.25.564-.25 1.072 0 .452-.075.821-.167.821-.094 0-.166.477-.166 1.096 0 .713-.081 1.176-.232 1.327-.559.559-.586 16.932-.029 17.34.191.14.261.486.261 1.297C.667 67.52.739 68 .833 68c.092 0 .167.37.167.821 0 .508.095.917.25 1.072.139.139.25.546.25.919 0 .367.075.715.167.771.091.057.166.361.166.677 0 .315.075.573.167.573.092 0 .167.257.167.572 0 .314.112.684.25.821.137.138.251.387.252.554.004.475.443 1.618.647 1.686.101.034.184.318.184.631s.075.57.167.57c.091 0 .166.187.166.416 0 .23.075.417.167.417.092 0 .167.182.167.405 0 .222.112.517.25.655.137.137.25.405.25.595 0 .19.075.345.166.345.092 0 .167.152.167.339 0 .186.113.381.25.434.138.053.25.238.25.411 0 .174.075.316.167.316.091 0 .166.188.166.417 0 .229.075.416.167.416.092 0 .167.153.167.339 0 .186.112.382.25.434.137.053.25.244.25.424s.093.432.208.559c.495.552.625.74.625.904a.17.17 0 0 0 .167.174c.091 0 .166.153.166.34 0 .188.188.543.417.79.229.247.417.544.417.66 0 .115.075.21.166.21.092 0 .167.144.167.321 0 .177.188.469.417.649.229.18.416.448.416.595 0 .148.075.268.167.268.092 0 .167.112.167.25s.112.25.25.25a.25.25 0 0 1 .25.25c0 .138.075.25.166.25.092 0 .167.122.167.272 0 .15.263.52.583.822.321.303.584.617.584.699 0 .081.375.55.833 1.04.458.491.833.922.833.958 0 .141.486.542.655.542.098 0 .179.078.179.174 0 .364 2.561 2.993 2.915 2.993.138 0 .251.08.251.179 0 .217.419.654.627.654.083 0 .251.188.373.417.123.229.284.417.359.417.074 0 .406.262.736.583.33.321.671.583.756.583.085 0 .41.263.722.584.311.32.722.583.913.583.191 0 .348.1.348.222s.187.322.416.445c.229.122.417.285.417.361 0 .076.109.139.241.139.133 0 .444.187.691.416.248.23.533.418.634.42.101.001.361.189.576.417.216.227.535.413.709.413.174 0 .316.075.316.167 0 .092.108.167.241.167s.444.187.691.416c.247.229.581.417.741.417.16 0 .334.112.387.25.053.137.248.25.434.25.187 0 .339.075.339.167 0 .091.15.166.333.166.184 0 .334.075.334.167 0 .092.187.167.416.167.26 0 .417.094.417.25 0 .155.157.25.417.25.229 0 .416.075.416.166 0 .092.182.167.403.167.222 0 .428.056.458.125.103.23 1.162.708 1.57.708.221 0 .403.075.403.167 0 .092.187.167.416.167.26 0 .417.094.417.25 0 .174.176.25.583.25.321 0 .584.075.584.166 0 .092.254.167.565.167.349 0 .602.096.662.25.056.146.305.25.601.25.278 0 .505.075.505.167 0 .091.262.166.583.166.321 0 .584.075.584.167 0 .092.375.167.833.167.63 0 .833.061.833.25 0 .184.194.25.74.25.408 0 .787.075.844.166.056.092.502.167.989.167.585 0 .957.085 1.094.25.145.174.529.25 1.27.25.598 0 1.063.073 1.063.167 0 .1.667.166 1.667.166s1.667.067 1.667.167c0 .107 1.722.167 4.833.167s4.833-.06 4.833-.167c0-.1.691-.167 1.74-.167.958 0 1.781-.064 1.829-.143.049-.079.595-.184 1.213-.234.618-.049 1.152-.172 1.185-.273.034-.103.454-.183.954-.183.491 0 .939-.075.996-.167.057-.091.438-.166.848-.166.509 0 .776-.08.842-.25.065-.17.331-.25.828-.25.403 0 .732-.075.732-.167 0-.092.258-.167.573-.167.316 0 .615-.066.665-.147.051-.082.355-.198.677-.258.322-.06.585-.173.585-.25 0-.077.225-.186.5-.242l1-.205c.275-.056.5-.206.5-.333 0-.153.197-.231.583-.231.321 0 .584-.075.584-.167 0-.092.187-.167.416-.167.23 0 .417-.075.417-.166 0-.092.152-.167.339-.167.186 0 .381-.112.434-.25.053-.138.257-.251.453-.252.197-.001.684-.189 1.083-.417.399-.228.83-.414.958-.414S82 107.092 82 107c0-.092.139-.167.309-.167.17 0 .511-.187.759-.416.247-.23.595-.417.774-.417.179 0 .325-.075.325-.167 0-.091.115-.166.255-.166s.298-.113.351-.25c.053-.138.202-.25.332-.25.25 0 1.607-.831 1.701-1.042.03-.069.129-.125.22-.125.09 0 .269-.094.397-.208.551-.495.74-.625.903-.625.096 0 .174-.061.174-.136 0-.075.263-.261.583-.414.321-.153.584-.354.584-.448 0-.093.08-.169.178-.169.098 0 .278-.094.398-.208a7.95 7.95 0 0 1 .69-.542c.258-.183.754-.615 1.101-.958.348-.344.689-.625.758-.625.069 0 .595-.45 1.167-1 .573-.55 1.104-1 1.18-1 .076 0 .234-.18.351-.399.117-.219.393-.494.612-.611.219-.117.398-.275.398-.35 0-.075.356-.505.792-.956 1.134-1.175 1.541-1.635 1.541-1.743 0-.052.282-.394.625-.759.881-.937 1.042-1.144 1.042-1.342a.17.17 0 0 1 .167-.174c.091 0 .166-.112.166-.25 0-.137.095-.25.21-.25.115 0 .316-.241.446-.535.13-.295.411-.697.624-.894.213-.197.387-.444.387-.548 0-.104.075-.189.167-.189.091 0 .166-.15.166-.334 0-.185.111-.333.25-.333.138 0 .25-.131.251-.292 0-.16.187-.509.416-.776.229-.266.417-.585.417-.708s.066-.224.146-.224c.081 0 .245-.244.365-.542.121-.298.317-.601.437-.675.12-.073.218-.279.218-.458s.075-.325.167-.325c.092 0 .167-.141.167-.313a.77.77 0 0 1 .25-.52c.137-.114.25-.311.25-.437 0-.127.075-.23.166-.23.092 0 .167-.187.167-.417 0-.229.075-.416.167-.416.091 0 .166-.188.166-.417 0-.259.095-.417.25-.417.156 0 .25-.157.25-.416 0-.229.075-.417.167-.417.092 0 .167-.155.167-.345 0-.19.112-.458.25-.595.137-.138.25-.433.25-.655 0-.223.075-.405.166-.405.092 0 .167-.187.167-.417 0-.229.075-.416.167-.416.091 0 .166-.255.166-.566 0-.349.096-.602.25-.661.146-.056.25-.306.25-.601 0-.278.075-.506.167-.506.092 0 .167-.256.167-.569 0-.313.082-.597.183-.631.1-.033.223-.414.271-.847.049-.432.154-.786.234-.786.08 0 .145-.258.145-.573 0-.316.075-.62.167-.677.091-.057.166-.503.166-.992 0-.636.071-.916.25-.985.181-.069.25-.352.25-1.018 0-.507.075-.922.167-.922.097 0 .167-.548.167-1.313 0-.902.07-1.371.226-1.5.169-.141.235-.811.259-2.646.019-1.357.104-2.482.191-2.513.205-.072.205-3.816 0-3.889-.087-.03-.172-1.162-.191-2.528-.025-1.905-.085-2.493-.259-2.56-.166-.063-.226-.461-.226-1.485 0-.822-.069-1.399-.167-1.399-.092 0-.167-.415-.167-.922 0-.666-.069-.948-.25-1.018-.179-.069-.25-.349-.25-.994 0-.495-.075-.899-.166-.899-.092 0-.167-.3-.167-.667 0-.367-.065-.667-.145-.667-.08 0-.185-.353-.234-.786-.048-.432-.171-.814-.271-.847-.101-.034-.183-.317-.183-.631 0-.313-.075-.569-.167-.569-.092 0-.167-.227-.167-.505 0-.296-.104-.545-.25-.601-.154-.06-.25-.313-.25-.662 0-.311-.075-.565-.166-.565-.092 0-.167-.188-.167-.417 0-.229-.075-.417-.167-.417-.091 0-.166-.178-.166-.396 0-.218-.113-.49-.25-.604-.138-.114-.25-.385-.25-.603 0-.218-.075-.397-.167-.397-.092 0-.167-.152-.167-.338 0-.186-.112-.382-.25-.435-.137-.052-.25-.275-.25-.494 0-.22-.075-.399-.166-.399-.092 0-.167-.188-.167-.417 0-.229-.075-.417-.167-.417-.091 0-.166-.103-.166-.229 0-.127-.113-.323-.25-.437a.772.772 0 0 1-.25-.521c0-.172-.067-.313-.149-.313-.082 0-.196-.187-.253-.416-.058-.23-.178-.417-.268-.417-.09 0-.164-.15-.164-.333 0-.184-.075-.334-.166-.334-.092 0-.167-.112-.167-.25 0-.137-.074-.25-.163-.25-.09 0-.211-.187-.269-.416-.057-.229-.171-.417-.253-.417-.081 0-.148-.15-.148-.333 0-.184-.075-.334-.167-.334-.092 0-.167-.112-.167-.25 0-.137-.104-.25-.232-.25-.127 0-.278-.186-.335-.413-.057-.227-.328-.642-.602-.922-.273-.28-.5-.601-.503-.712-.006-.242-.398-.786-.566-.786-.198 0-.595-.462-.599-.696-.006-.276-1.239-1.637-1.483-1.637-.099 0-.18-.112-.18-.249 0-.243-.373-.748-1.125-1.518-.206-.212-.375-.463-.375-.559a.172.172 0 0 0-.17-.174c-.094 0-.979-.807-1.968-1.792-.988-.985-2.007-1.942-2.264-2.125a12.184 12.184 0 0 1-1.109-.958c-.353-.344-.688-.625-.744-.625-.056 0-.206-.094-.334-.209-.482-.431-.733-.625-.812-.625-.045 0-.284-.187-.531-.416-.247-.23-.517-.417-.599-.417-.083 0-.352-.187-.599-.417-.247-.229-.544-.416-.66-.416-.115 0-.21-.075-.21-.167 0-.092-.106-.167-.236-.167s-.261-.056-.291-.125c-.098-.218-1.455-1.041-1.719-1.041a.253.253 0 0 1-.254-.25c0-.139-.148-.25-.333-.25-.183 0-.333-.075-.333-.167 0-.092-.068-.167-.151-.167-.083 0-.615-.262-1.183-.583-.567-.321-1.137-.583-1.266-.583-.128 0-.234-.074-.234-.164 0-.09-.187-.21-.416-.268-.229-.057-.417-.171-.417-.253 0-.082-.183-.149-.407-.149-.224 0-.453-.075-.51-.166-.056-.092-.323-.167-.593-.167-.324 0-.49-.084-.49-.25 0-.156-.157-.25-.417-.25-.229 0-.416-.075-.416-.167 0-.091-.156-.166-.346-.166a.978.978 0 0 1-.595-.25c-.137-.138-.432-.25-.655-.25-.222 0-.404-.075-.404-.167 0-.092-.263-.167-.584-.167-.321 0-.583-.075-.583-.166 0-.092-.254-.167-.566-.167-.348 0-.602-.096-.661-.25-.055-.145-.305-.25-.591-.25-.273 0-.542-.075-.599-.167-.056-.091-.428-.166-.825-.166-.488 0-.753-.081-.818-.25-.066-.172-.334-.25-.851-.25-.416 0-.756-.075-.756-.167 0-.092-.408-.167-.906-.167-.499 0-.954-.075-1.01-.166-.057-.092-.624-.167-1.26-.167-.917 0-1.157-.052-1.157-.25 0-.205-.287-.25-1.583-.25-.945 0-1.584-.067-1.584-.167 0-.107-1.833-.166-5.166-.166C52.833.667 51 .726 51 .833m131.833 18c0 .092-.37.167-.823.167-.453 0-.87.075-.927.167-.056.091-.318.166-.581.166-.263 0-.591.113-.728.25-.138.138-.481.25-.762.25-.282 0-.512.075-.512.167 0 .092-.187.167-.417.167-.259 0-.416.094-.416.25 0 .149-.154.25-.384.25-.439 0-1.28.355-1.282.541 0 .069-.104.125-.231.125-.126 0-.323.113-.437.25-.114.138-.321.25-.459.25-.139 0-.426.188-.639.417-.212.229-.502.417-.644.417-.142 0-.258.062-.258.138 0 .076-.187.239-.416.362-.229.122-.417.322-.417.444 0 .123-.08.222-.179.222-.194 0-.654.411-.654.584 0 .139-.445.583-.584.583-.173 0-.583.461-.583.655 0 .098-.073.178-.162.178-.09 0-.288.244-.442.542-.153.298-.455.694-.671.88-.215.187-.392.468-.392.625 0 .158-.075.287-.166.287-.092 0-.167.112-.167.25 0 .137-.074.25-.163.25-.09 0-.211.187-.269.416-.057.23-.171.417-.253.417-.081 0-.148.146-.148.323 0 .178-.075.37-.167.427-.092.057-.167.239-.167.406a.76.76 0 0 1-.25.511c-.137.114-.25.381-.25.594 0 .212-.075.432-.166.489-.092.057-.169.305-.172.552-.003.246-.116.594-.25.772-.135.177-.245.567-.245.865 0 .298-.075.588-.167.644-.091.057-.166.699-.166 1.427 0 .771-.07 1.323-.167 1.323-.105 0-.167 1.167-.167 3.167 0 2 .062 3.167.167 3.167.095 0 .167.5.167 1.166 0 .667.071 1.167.166 1.167.092 0 .167.295.167.655 0 .36.112.767.25.905.137.137.251.424.253.636.003.542.425 1.697.646 1.77.101.034.184.243.184.465 0 .221.075.402.167.402.092 0 .167.188.167.417 0 .229.075.417.166.417.092 0 .167.152.167.338 0 .186.112.382.25.435.137.052.25.238.25.411 0 .174.075.316.167.316.091 0 .166.109.166.242s.188.43.417.659c.229.229.417.463.417.52 0 .056.093.207.208.335.453.505.625.734.625.832 0 .169.463.578.655.578.098 0 .178.078.178.174 0 .23 1.258 1.493 1.487 1.493.099 0 .18.075.18.167 0 .091.15.166.333.166.186 0 .334.111.334.25 0 .138.056.25.125.251.068 0 .343.187.609.416.266.229.585.417.708.417s.224.075.224.166c0 .092.15.167.334.167.183 0 .333.075.333.167 0 .091.188.166.417.166.259 0 .416.095.416.25 0 .156.158.25.417.25.229 0 .417.075.417.167 0 .092.179.167.399.167.219 0 .442.112.494.25.056.146.306.25.601.25.278 0 .506.075.506.166 0 .092.262.167.583.167.321 0 .583.075.583.167 0 .091.367.166.816.166.571 0 .844.075.911.25.083.215.852.25 5.518.25 4.708 0 5.422-.033 5.422-.25 0-.194.222-.25 1-.25.556 0 1-.074 1-.166 0-.092.333-.167.74-.167s.787-.075.843-.167c.057-.091.326-.166.599-.166.286 0 .536-.106.591-.25.059-.155.313-.25.661-.25.312 0 .566-.075.566-.167 0-.092.152-.167.339-.167.186 0 .381-.112.434-.25.053-.137.275-.25.495-.25.219 0 .399-.061.399-.135 0-.075.262-.239.583-.365.321-.126.583-.327.583-.447 0-.121.156-.219.346-.219.191 0 .566-.22.834-.488l.487-.487V41h-14.833v2.88c0 3.736-.307 3.453 3.752 3.453H196l-.005 3.542c-.006 3.766-.076 4.125-.805 4.125-.196 0-.357.075-.357.167 0 .091-.262.166-.583.166-.321 0-.583.066-.583.145 0 .08-.354.185-.787.234-.432.049-.813.171-.847.272-.101.305-7.03.238-7.44-.073-.178-.134-.572-.244-.875-.244-.303 0-.551-.075-.551-.167 0-.092-.188-.167-.417-.167-.229 0-.417-.075-.417-.166 0-.092-.14-.167-.313-.167a.775.775 0 0 1-.52-.25c-.114-.138-.311-.25-.437-.25s-.23-.075-.23-.167c0-.091-.112-.166-.25-.166-.137 0-.25-.07-.25-.156 0-.085-.147-.202-.327-.259-.439-.14-2.839-2.546-2.839-2.847 0-.131-.075-.238-.167-.238-.092 0-.167-.113-.167-.25 0-.138-.073-.25-.163-.25-.09 0-.211-.188-.268-.417-.058-.229-.172-.417-.253-.417-.082 0-.149-.145-.149-.323 0-.178-.075-.37-.167-.427-.091-.056-.166-.243-.166-.414a.881.881 0 0 0-.226-.538c-.226-.225-.378-.789-.553-2.048-.05-.366-.171-.764-.268-.883-.26-.323-.246-7.241.015-7.328.117-.039.198-.401.198-.886 0-.451.075-.819.167-.819.092 0 .167-.255.167-.566 0-.349.095-.602.25-.661.137-.053.25-.244.25-.425s.075-.375.166-.432c.092-.056.167-.248.167-.426s.056-.324.125-.325c.156-.001.708-.955.708-1.223 0-.108.188-.337.417-.509.229-.173.417-.402.417-.51 0-.108.187-.36.416-.559.23-.199.419-.419.421-.488.002-.07.339-.351.749-.626.411-.275.746-.557.747-.625 0-.069.102-.125.226-.125.124 0 .428-.188.675-.417.247-.229.596-.417.774-.417.179 0 .325-.075.325-.166 0-.092.227-.167.505-.167.296 0 .545-.104.601-.25.06-.154.313-.25.662-.25.311 0 .565-.075.565-.167 0-.106 1.334-.166 3.667-.166 2.333 0 3.667.06 3.667.166 0 .092.34.167.755.167.517 0 .785.079.851.25.053.137.271.25.485.25.214 0 .435.075.492.167.057.091.245.166.418.166s.517.188.764.417c.248.229.589.417.759.417.17 0 .309.075.309.166 0 .092.131.168.292.17.16.001.468.189.684.417.216.227.577.413.803.413.226 0 .524.113.661.25.138.138.427.25.643.25.216 0 .506-.112.643-.25.138-.137.374-.25.525-.25.307 0 1.249-.873 1.249-1.157 0-.212.856-1.566 1.042-1.648.068-.031.125-.186.125-.346 0-.16.187-.467.416-.682.735-.69.201-2.5-.737-2.5-.099 0-.179-.075-.179-.167 0-.091-.15-.166-.334-.166-.185 0-.333-.111-.333-.25a.25.25 0 0 0-.25-.25c-.138 0-.25-.075-.25-.167 0-.092-.109-.167-.241-.167-.133 0-.444-.187-.691-.416-.248-.229-.589-.417-.759-.417-.17 0-.309-.075-.309-.167 0-.091-.141-.166-.313-.166a.775.775 0 0 1-.52-.25c-.114-.138-.382-.25-.594-.25-.213 0-.433-.075-.49-.167-.056-.092-.254-.167-.438-.167a.953.953 0 0 1-.585-.25c-.138-.137-.508-.25-.822-.25-.314 0-.571-.075-.571-.166 0-.092-.375-.167-.834-.167-.458 0-.833-.075-.833-.167 0-.107-1.889-.166-5.333-.166-3.445 0-5.334.059-5.334.166m60.334-.016c0 .083-.357.188-.792.234-1.222.129-2.275.398-2.342.6-.033.1-.275.182-.537.182s-.523.075-.579.167c-.057.092-.251.167-.432.167s-.372.112-.425.25c-.052.137-.275.25-.494.25-.22 0-.399.075-.399.166 0 .092-.15.167-.334.167-.183 0-.333.067-.333.149 0 .081-.187.195-.417.253-.229.057-.416.178-.416.268 0 .09-.078.163-.174.163-.164 0-.352.131-.904.625-.127.115-.296.209-.374.209-.078 0-.25.15-.382.333-.132.183-.322.333-.421.333-.219 0-1.245.979-1.245 1.187 0 .081-.113.147-.25.147a.25.25 0 0 0-.25.25c0 .137-.078.25-.172.25-.095 0-.219.121-.276.269-.057.149-.429.606-.828 1.016-.398.41-.724.888-.724 1.063 0 .175-.113.318-.25.318a.252.252 0 0 0-.25.254c0 .264-.823 1.621-1.042 1.719-.069.03-.125.236-.125.458 0 .221-.075.403-.167.403-.091 0-.166.262-.166.583 0 .407-.076.583-.25.583-.154 0-.25.157-.25.407 0 .224-.075.453-.167.51-.092.057-.167.366-.167.688 0 .322-.112.698-.25.836-.147.147-.25.554-.25.988 0 .406-.075.738-.166.738-.102 0-.167.75-.167 1.917 0 1.166-.065 1.916-.167 1.916-.094 0-.166.473-.166 1.084 0 .595.07 1.083.156 1.083s.189.844.228 1.875c.077 2.041.343 3.673.612 3.763.094.031.17.383.17.783 0 .399.075.772.167.829.092.057.167.251.167.432s.112.372.25.424c.142.055.25.304.25.578 0 .266.075.483.166.483.092 0 .167.187.167.416 0 .23.067.417.149.417.081 0 .195.188.253.417.057.229.178.416.268.416.09 0 .163.113.163.25 0 .138.075.25.167.25.092 0 .167.153.167.339 0 .186.112.382.25.434.137.053.25.212.25.353 0 .142.262.512.583.824.321.311.583.603.583.649 0 .229 2.287 2.568 2.511 2.568.232 0 .656.424.656.655 0 .098.112.178.25.178.137 0 .25.075.25.167 0 .092.142.167.316.167.173 0 .351.093.395.208.091.236 1.374.958 1.704.958.119 0 .259.113.312.25.053.138.248.25.434.25.187 0 .339.075.339.167 0 .092.188.167.417.167.229 0 .416.071.416.159 0 .087.263.208.584.268.32.061.583.176.583.258 0 .081.3.148.667.148.366 0 .666.075.666.167 0 .091.405.166.899.166.645 0 .926.071.995.25.144.375 9.462.375 9.773 0 .127-.152.492-.25.937-.25.401 0 .73-.075.73-.166 0-.092.258-.167.573-.167.316 0 .62-.075.677-.167.056-.091.326-.166.598-.166.287 0 .536-.106.591-.25.053-.138.276-.25.495-.25.22 0 .399-.075.399-.167 0-.092.15-.167.333-.167.186 0 .334-.111.334-.25 0-.155.157-.25.416-.25.23 0 .417-.075.417-.166 0-.092.155-.167.345-.167.19 0 .45-.094.578-.208.514-.462.735-.625.843-.625.062 0 .286-.188.499-.417.212-.229.474-.417.583-.417.22 0 3.152-2.983 3.152-3.207 0-.078.188-.316.417-.528.229-.212.416-.509.416-.659 0-.15.075-.272.167-.272.092 0 .167-.113.167-.25 0-.138.071-.25.159-.25.087 0 .281-.282.43-.625a8.92 8.92 0 0 1 .429-.875 3.06 3.06 0 0 0 .256-.542c.054-.16.164-.292.245-.292.081 0 .147-.187.147-.416 0-.229.075-.417.167-.417.092 0 .167-.254.167-.566 0-.348.095-.602.25-.661.144-.055.25-.305.25-.591 0-.273.075-.542.166-.599.092-.056.167-.421.167-.81 0-.388.088-.795.196-.903.108-.108.23-.837.271-1.62.042-.782.141-1.464.221-1.513.193-.119.189-4.57-.005-4.57-.082 0-.176-.688-.208-1.528-.039-1.03-.126-1.551-.267-1.597-.129-.043-.208-.382-.208-.889 0-.451-.075-.82-.167-.82-.091 0-.166-.215-.166-.479s-.113-.573-.25-.687c-.138-.114-.25-.419-.25-.678 0-.258-.075-.516-.167-.572-.092-.057-.167-.249-.167-.427s-.075-.323-.166-.323c-.092 0-.167-.153-.167-.339 0-.186-.113-.382-.25-.434-.138-.053-.25-.276-.25-.495 0-.22-.075-.399-.167-.399-.091 0-.166-.139-.166-.31 0-.17-.188-.451-.417-.623-.229-.172-.417-.44-.417-.594 0-.155-.187-.43-.416-.61-.229-.18-.417-.378-.417-.441 0-.062-.094-.217-.208-.345-.442-.492-.625-.733-.625-.82 0-.14-1.317-1.424-1.461-1.424-.07 0-.268-.187-.44-.416-.172-.229-.415-.417-.539-.417-.125 0-.227-.075-.227-.167 0-.091-.104-.166-.232-.166s-.276-.113-.328-.25c-.053-.138-.249-.25-.435-.25s-.338-.064-.338-.141c0-.077-.263-.282-.584-.454-.321-.173-.583-.372-.583-.443 0-.071-.187-.129-.417-.129-.229 0-.416-.075-.416-.167 0-.091-.142-.166-.316-.166-.173 0-.359-.113-.411-.25-.053-.138-.244-.25-.425-.25s-.375-.075-.432-.167c-.056-.092-.291-.167-.521-.167-.231 0-.532-.112-.669-.25-.138-.137-.47-.25-.738-.25-.269 0-.488-.075-.488-.166 0-.092-.375-.167-.834-.167-.458 0-.833-.075-.833-.167 0-.107-1.75-.166-4.917-.166-2.816 0-4.916.064-4.916.15m50.111.294c-.061.061-.111 9.924-.111 21.917v21.805H319.5v-3.48c0-3.469-.001-3.481-.375-3.581-.206-.056-4.181-.102-8.833-.103l-8.459-.002V19h-4.222c-2.322 0-4.272.05-4.333.111m48.43.333c-.165.066-.208 4.57-.208 21.737v21.652h10.917c7.166 0 10.916-.057 10.916-.166 0-.092.408-.167.907-.167.499 0 .953-.075 1.01-.167.057-.091.363-.166.682-.166.36 0 .615-.095.674-.25.06-.155.313-.25.662-.25.311 0 .565-.075.565-.167 0-.092.153-.167.339-.167.186 0 .382-.112.434-.25.053-.137.234-.25.402-.25s.352-.075.409-.166c.056-.092.248-.167.426-.167s.324-.075.324-.167c0-.091.152-.166.338-.166.186 0 .382-.113.435-.25a.434.434 0 0 1 .369-.256c.346-.006.858-.387.858-.638 0-.104.112-.19.25-.19.137 0 .25-.075.25-.166 0-.092.1-.167.222-.167.254 0 2.778-2.416 2.778-2.659 0-.089.3-.458.666-.821.367-.364.667-.775.667-.915s.188-.457.417-.704c.229-.247.416-.551.416-.675s.075-.226.167-.226c.092 0 .167-.179.167-.399 0-.219.112-.442.25-.495.137-.052.25-.243.25-.424s.075-.375.166-.432c.092-.057.167-.316.167-.575 0-.266.109-.515.25-.569.146-.056.25-.305.25-.601 0-.278.075-.505.167-.505.091 0 .166-.258.166-.573 0-.316.075-.62.167-.677.092-.057.167-.616.167-1.242 0-.859.061-1.163.25-1.235.366-.141.371-6.715.005-7.199-.153-.203-.247-.715-.25-1.366-.003-.579-.079-1.041-.172-1.041-.092 0-.167-.3-.167-.667 0-.367-.075-.667-.166-.667-.092 0-.167-.215-.167-.479s-.113-.573-.25-.687c-.137-.114-.25-.382-.25-.594 0-.213-.075-.433-.167-.49-.091-.056-.166-.251-.166-.431 0-.181-.113-.372-.25-.425-.138-.053-.25-.275-.25-.495 0-.219-.06-.399-.134-.399-.073 0-.229-.267-.348-.594-.118-.327-.32-.635-.45-.684a.399.399 0 0 1-.235-.345c0-.14-.262-.502-.583-.804-.321-.303-.584-.617-.584-.698 0-.206-1.754-2.041-1.95-2.041-.088 0-.26-.188-.383-.417-.123-.229-.326-.417-.453-.417-.126 0-.403-.187-.616-.416-.212-.229-.509-.417-.658-.417-.15 0-.273-.075-.273-.167 0-.091-.104-.166-.232-.166s-.276-.113-.328-.25c-.053-.138-.249-.25-.435-.25s-.338-.075-.338-.167c0-.092-.146-.167-.324-.167-.178 0-.367-.07-.42-.156-.126-.205-1.079-.677-1.365-.677-.124 0-.225-.075-.225-.167 0-.091-.254-.166-.565-.166-.349 0-.602-.096-.662-.25-.059-.156-.314-.25-.674-.25-.319 0-.625-.075-.682-.167-.057-.092-.479-.167-.938-.167-.521 0-.93-.094-1.086-.25-.246-.245-20.922-.38-21.518-.139m-90.458 6.889c.057.092.436.167.843.167.547 0 .74.065.74.25 0 .156.158.25.417.25.229 0 .417.075.417.167 0 .091.114.166.253.166.283 0 1.632.805 1.719 1.025.03.078.16.142.288.142.227 0 2.073 1.762 2.073 1.978 0 .06.188.311.417.558.229.247.416.565.416.707 0 .141.075.257.167.257.092 0 .167.112.167.25 0 .137.067.25.148.25.082 0 .196.188.253.417.058.229.179.416.269.416.089 0 .163.263.163.584 0 .32.075.583.167.583.091 0 .166.262.166.583 0 .408.076.584.25.584.195 0 .25.222.25 1 0 .555.074 1 .167 1 .105 0 .167 1.194.167 3.25 0 2.055-.062 3.25-.167 3.25-.092 0-.167.438-.167.982 0 .719-.067 1.008-.25 1.078-.144.055-.25.305-.25.591 0 .273-.075.542-.166.599-.092.056-.167.315-.167.575 0 .266-.109.514-.25.568-.138.053-.25.249-.25.435s-.075.338-.167.338c-.091 0-.166.171-.166.38s-.157.49-.348.625c-.191.135-.459.458-.595.718-.136.26-.505.722-.819 1.028-.314.305-.572.636-.572.735 0 .1-.112.181-.25.181-.137 0-.25.058-.25.129 0 .071-.262.27-.583.443-.321.172-.583.377-.583.454 0 .077-.15.141-.334.141-.183 0-.333.075-.333.166 0 .092-.152.167-.339.167-.186 0-.381.112-.434.25-.053.137-.275.25-.495.25-.219 0-.399.075-.399.167 0 .091-.285.166-.633.166-.348 0-.727.094-.842.209-.152.152-1.067.208-3.394.208-2.401 0-3.203-.051-3.256-.208-.038-.115-.321-.209-.629-.209s-.606-.075-.662-.166c-.057-.092-.316-.167-.576-.167-.266 0-.514-.109-.568-.25-.053-.138-.248-.25-.434-.25-.187 0-.339-.075-.339-.167 0-.091-.118-.166-.262-.166a.807.807 0 0 1-.478-.209c-.627-.605-1.123-.958-1.345-.958-.136 0-.248-.08-.248-.179 0-.23-.424-.654-.655-.654-.098 0-.179-.123-.179-.273 0-.15-.187-.446-.416-.659-.229-.212-.417-.464-.417-.56a.172.172 0 0 0-.167-.175c-.091 0-.166-.15-.166-.333 0-.184-.074-.334-.164-.334-.09 0-.21-.187-.268-.416-.057-.229-.171-.417-.253-.417-.082 0-.149-.146-.149-.323 0-.178-.075-.37-.166-.427-.092-.057-.167-.251-.167-.432s-.113-.372-.25-.424c-.17-.066-.25-.331-.25-.828 0-.403-.075-.733-.167-.733-.092 0-.166-.444-.166-1 0-.555-.074-1-.167-1-.105 0-.167-1.052-.167-2.823 0-1.703.067-2.865.167-2.927.092-.056.167-.506.167-1 0-.493.075-.943.166-1 .092-.056.167-.329.167-.605 0-.276.112-.614.25-.752.137-.137.25-.432.25-.655 0-.222.075-.404.167-.404.091 0 .166-.188.166-.417 0-.229.057-.417.125-.418.157-.001.709-.956.709-1.225 0-.11.156-.31.347-.445.191-.135.459-.458.595-.718.217-.414.816-1.052 1.629-1.736.136-.114.326-.208.422-.208.095 0 .173-.066.173-.148 0-.081.263-.272.584-.424.32-.152.583-.348.583-.436 0-.087.188-.159.417-.159.229 0 .416-.075.416-.166 0-.092.182-.167.405-.167.223 0 .517-.113.655-.25.137-.137.48-.25.762-.25.281 0 .512-.075.512-.167 0-.105 1.191-.166 3.24-.166 1.98 0 3.28.064 3.343.166m107.083 0c0 .101.689.167 1.733.167 1.385 0 1.751.05 1.828.25.06.157.315.25.684.25.324 0 .589.075.589.167 0 .091.262.166.583.166.321 0 .583.076.583.167 0 .092.3.298.667.456.367.159.667.347.667.417s.15.127.333.127c.183 0 .333.08.333.179 0 .195.411.654.587.654.243 0 2.08 2.067 2.08 2.341 0 .093.113.213.25.266.137.052.25.2.25.328s.075.232.167.232c.091 0 .166.188.166.417 0 .259.095.416.25.416.166 0 .25.166.25.49 0 .27.075.537.167.594.092.056.167.319.167.583 0 .264.075.527.166.583.092.057.167.347.167.645 0 .298.11.687.245.865.173.229.246.775.25 1.865.003.913.073 1.542.172 1.542.091 0 .166.3.166.667 0 .366-.075.666-.166.666-.1 0-.167.632-.167 1.563 0 1.186-.06 1.613-.25 1.771-.142.118-.25.481-.25.844 0 .35-.075.682-.167.739-.091.057-.166.324-.166.593 0 .27-.075.49-.167.49-.092 0-.167.263-.167.584 0 .407-.075.583-.25.583-.14 0-.25.149-.25.341 0 .187-.187.542-.416.79-.229.247-.417.527-.417.622 0 .095-.15.282-.333.414-.184.132-.334.301-.334.376 0 .168-1.261 1.457-1.425 1.457-.066 0-.24.137-.388.304-.149.166-.514.445-.812.619-.298.173-.541.374-.541.446 0 .072-.188.131-.417.131-.259 0-.417.094-.417.25 0 .175-.176.25-.583.25-.321 0-.583.075-.583.167 0 .091-.248.166-.55.166-.303 0-.622.07-.709.155-.087.086-.905.19-1.819.232-1.002.047-1.685.151-1.722.262-.043.128-1.234.185-3.881.185h-3.819v-30h3.833c2.444 0 3.833.06 3.833.166M29.804 34.749c5.679.904 5.574.853 5.219 2.485-.422 1.942-.917 5.159-1.273 8.266a252.291 252.291 0 0 1-.42 3.465c-.227 1.688-.209 12.398.023 13.907.205 1.337.705 3.88.944 4.805.811 3.134 3.365 5.776 6.703 6.933 4.507 1.563 18.935 2.062 26.083.902 2.171-.352 2.876-.505 3.915-.852 5.984-1.996 7.989-6.63 7.999-18.493.004-3.989-.083-5.632-.503-9.5-.335-3.091-.955-7.367-1.184-8.167-.189-.661-.278-2.585-.127-2.738.153-.154 1.946-.595 2.42-.595.231 0 1.071-.115 1.867-.255l2.373-.417c1.702-.297 2.32-.052 2.531 1.005.046.229.238 1.167.427 2.083 2.323 11.278 2.65 25.586.747 32.75l-.374 1.417a9.141 9.141 0 0 1-.34 1c-.115.275-.266.65-.337.833-2.113 5.498-7.006 9.354-13.664 10.765-9.893 2.097-27.031 1.973-34.5-.251l-1.5-.444c-5.852-1.727-10.193-6.063-11.834-11.82-.118-.412-.305-1.05-.416-1.416-1.67-5.517-1.632-20.463.075-29.334.089-.458.246-1.321.35-1.916.938-5.385.611-5.084 4.796-4.418" fill="#e4b442"/>
  </g>
</svg>
